<?xml version="1.0" encoding="UTF-8"?>
<svg id="blu-ray" data-name="Layer 2" xmlns="http://www.w3.org/2000/svg" viewBox="0 0 320.25 320.25">
  <g id="Layer_1-2" data-name="Layer 1">
    <path d="M160.12.5C71.97.5.5,71.97.5,160.12s71.47,159.62,159.62,159.62,159.62-71.47,159.62-159.62S248.28.5,160.12.5ZM160.12,182.1c-12.14,0-21.98-9.84-21.98-21.98s9.84-21.98,21.98-21.98,21.98,9.84,21.98,21.98-9.84,21.98-21.98,21.98Z" style="fill: #fff; opacity: .09; stroke: #fff; stroke-miterlimit: 10;"/>
    <path d="M160.12,5.62C74.8,5.62,5.62,74.8,5.62,160.12s69.17,154.5,154.5,154.5,154.5-69.17,154.5-154.5S245.45,5.62,160.12,5.62ZM160.12,213.96c-29.73,0-53.84-24.1-53.84-53.84s24.1-53.84,53.84-53.84,53.84,24.1,53.84,53.84-24.1,53.84-53.84,53.84Z" style="fill: #96b1dc; stroke: #000; stroke-miterlimit: 10;"/>
    <path d="M208.64,136.77c3.41,7.07,5.32,14.99,5.32,23.36h100.66c0-7.94-.6-15.74-1.76-23.36h-104.22Z" style="fill: #b4b0ae; stroke-width: 0px;"/>
    <path d="M314.62,157.17h-100.67c-.03,4.27-.21,8.47-.56,12.58h101.04c.12-4.17.18-8.36.19-12.58Z" style="fill: #273c85; opacity: .92; stroke-width: 0px;"/>
    <circle cx="160.12" cy="160.12" r="26.45" style="fill: none; opacity: .08; stroke: #fff; stroke-miterlimit: 10;"/>
    <circle cx="160.12" cy="160.12" r="21.98" style="fill: none; stroke: #231f20; stroke-miterlimit: 10;"/>
    <circle cx="160.12" cy="160.12" r="53.84" style="fill: none; stroke: #231f20; stroke-miterlimit: 10;"/>
    <g>
      <path d="M182.91,52.91v1.14s1.11,0,1.11,0c.49,0,.81.31.99.5.15.16,3.35,3.8,3.43,3.89.08.1.08.1.08.16v1.8c0,.08,0,.16-.02.25-.05.11-.14.19-.25.22-.11.01-.21.02-.32.02h-1.11s0,1.14,0,1.14h6.25s0-1.14,0-1.14h-1.18c-.11,0-.21,0-.31-.02-.11-.03-.2-.11-.25-.22-.02-.08-.02-.16-.03-.25v-1.8c0-.06,0-.12.04-.17l3.47-3.96c.32-.35.48-.43.9-.43h1.15s0-1.14,0-1.14h-5.15s0,1.14,0,1.14h.78c.12,0,.22.08.23.2,0,.05-.01.1-.04.15-.02.02-2.16,2.54-2.18,2.56s-.04.02-.06,0c-.02-.03-2.13-2.56-2.13-2.56-.15-.18-.03-.35.14-.35h.76s0-1.14,0-1.14h-6.28Z" style="fill: #374ca0; stroke-width: 0px;"/>
      <path d="M152.39,52.91v1.14s1,0,1,0c.72,0,.77.4.77.75v5.34c0,.32.02.76-.44.76h-1.23s0,1.14,0,1.14h5.26s0-1.14,0-1.14h-1.28c-.51,0-.54-.23-.54-.73v-4.57s7.22,6.44,7.22,6.44h1.84s-.1-7.27-.1-7.27c0-.53.04-.71.59-.71h1.15s0-1.14,0-1.14h-5.36s0,1.14,0,1.14h1.18c.54,0,.63.21.64.71l.06,3.81-6.27-5.65h-4.48Z" style="fill: #374ca0; stroke-width: 0px;"/>
      <path d="M128.72,52.33c-1.13,0-2.41.21-3.5.7-1.01.45-1.84,1.18-1.84,2.38,0,.63.24,1.24.67,1.7.29.27.76.73,2,1,.55.12,1.73.3,2.9.43,1.17.12,2.31.23,2.78.36.37.09.99.22.99.92s-.66.91-.77.95c-.11.05-.9.41-2.32.41-.94-.03-1.87-.19-2.76-.47-.53-.19-1.08-.44-1.6-1.07-.21-.3-.32-.65-.33-1.01h-1.28s0,3.59,0,3.59h1.42s0-.49,0-.49c0-.11.09-.2.2-.2.04,0,.07,0,.11.03.67.29,1.37.52,2.08.67.75.16,1.23.27,2.16.27.98.02,1.96-.12,2.9-.41.62-.17,1.21-.46,1.72-.85.59-.45.93-1.15.92-1.89,0-.69-.26-1.36-.74-1.86-.27-.26-.58-.47-.92-.63-.37-.17-.74-.3-1.13-.4-.74-.18-2.4-.41-3.19-.49-.83-.09-2.28-.21-2.85-.38-.17-.05-.53-.22-.53-.64,0-.29.16-.54.48-.75.51-.32,1.54-.52,2.62-.52,1.04-.01,2.08.19,3.04.59.26.11.5.26.72.43.36.31.61.73.71,1.19h1.15s0-3.12,0-3.12h-1.28s0,.36,0,.36c0,.12-.12.27-.35.14-.58-.3-2.2-.95-4.2-.96h0Z" style="fill: #374ca0; stroke-width: 0px;"/>
      <path d="M144.15,52.33c-2.02,0-4.16.7-5.38,1.8-.93.85-1.47,2.06-1.46,3.32-.01,1.27.52,2.48,1.46,3.33,1.31,1.17,3.26,1.8,5.38,1.8s4.12-.62,5.39-1.8c.92-.87,1.44-2.07,1.44-3.33.01-1.26-.51-2.47-1.44-3.32-1.37-1.24-3.16-1.8-5.39-1.8h0ZM144.15,53.67c1.1,0,2.17.4,2.89,1.1.69.68,1.06,1.65,1.06,2.68,0,1.08-.33,1.96-1.06,2.68-.73.72-1.77,1.11-2.89,1.11s-2.17-.4-2.89-1.11c-.69-.72-1.07-1.68-1.05-2.68,0-1.03.36-2,1.05-2.68.72-.71,1.79-1.1,2.89-1.1h0Z" style="fill: #374ca0; stroke-width: 0px;"/>
      <path d="M167.58,52.9v1.14s1,0,1,0c.72,0,.77.4.77.75v5.34c0,.32.02.76-.44.76h-1.23s0,1.14,0,1.14h5.26s0-1.14,0-1.14h-1.28c-.51,0-.54-.23-.54-.73v-4.57s7.22,6.44,7.22,6.44h1.84s-.1-7.27-.1-7.27c0-.53.04-.71.59-.71h1.15s0-1.14,0-1.14h-5.36s0,1.14,0,1.14h1.18c.54,0,.63.21.64.71l.06,3.81-6.27-5.65h-4.48Z" style="fill: #374ca0; stroke-width: 0px;"/>
    </g>
    <g>
      <path d="M42.58,171.2c-.12,0-.53.14-.89.68-.35.55-1.94,3.32-2.22,3.84-.3.52-.2.74.14.73l.73-.02c.34,0,.65-.41.76-.68.16-.25,2.04-3.47,2.34-3.94.26-.47.08-.64-.14-.63-.19,0-.73.02-.73.02h0Z" style="fill: #243f93; stroke-width: 0px;"/>
      <path d="M36.05,176.54c1.24-.08,2.07-.15,3-1.95.39-.81-.78-.81-.78-.81-.17,0,1.07,0,1.7-1.41.58-1.28-.49-1.16-.69-1.18-.93-.1-2.66,0-3.97.1-.27,0-.58.38-.74.6-.12.25-2.06,3.56-2.34,4.03-.3.5.02.68.33.7.93.03,2.1,0,3.49-.09h0ZM37.08,174.8c-.32.72-.96.76-1.32.76l-.98.02c-.12,0-.24,0-.13-.27.17-.22.4-.62.49-.77.09-.17.19-.22.41-.23l1.05-.03c.19,0,.71-.04.48.5h0ZM37.93,172.68c-.32.71-.98.73-1.32.74h-.58c-.1.02-.27.02-.1-.2.16-.25.35-.67.47-.82.12-.15.21-.23.38-.23l.71-.02c.2,0,.71-.02.45.53h0Z" style="fill: #243f93; stroke-width: 0px;"/>
      <path d="M76.56,172.31l-1.55,2.6c-.33.54-.03.66.14.66l.71-.02c.27,0,.46-.04.86-.68l1.54-2.65c.42-.72-.11-.66-.46-.65-.61.04-.76.02-1.25.74h0Z" style="fill: #243f93; stroke-width: 0px;"/>
      <path d="M83.19,172.32l-1.93.05c-.19,0-.46.18-.6.38-.12.2-.04.39.16.39,0-.02.78-.02,1.37-.03.61-.04.84.37.2,1.29-.12.2-.38.52-.59.65,0,0-.53.45-2.26.49-1.58.04-1.66-.13-1.66-.13-.15-.12-.2-.34-.16-.46.07-.1.31-.2.51-.21l2-.05c.19,0,.46-.18.58-.4.14-.2.06-.44-.13-.44l-1.49.04c-.71.02-.62-.45-.1-1.24.14-.22.4-.5.59-.65,0,0,.57-.45,2.28-.5.68-.02,1.83-.12,1.77.47-.02.27-.41.35-.53.35h0Z" style="fill: #243f93; stroke-width: 0px;"/>
      <path d="M88.24,172.22l-1.56.04c-.19,0-.46.18-.57.43l-.89,1.46c-.12.2-.04.42.11.41l1.85-.05c.27,0,.44.01.42.09-.02.27-.4.74-2.57.8-1.95.05-1.83-.22-1.82-.52.04-.32.95-1.85,1.23-2.32.28-.49.68-1.14,2.6-1.19,1.8-.04,1.72.37,1.69.47,0,.1-.09.37-.5.38h0Z" style="fill: #243f93; stroke-width: 0px;"/>
      <path d="M79.14,170.08c.15,0,.32.14.2.39-.14.2-.19.3-.26.45-.09.15-.31.23-.58.23l-1,.02c-.19,0-.2-.17-.11-.34.07-.15.12-.22.19-.32.07-.12.19-.39.58-.4l.98-.02h0Z" style="fill: #243f93; stroke-width: 0px;"/>
      <path d="M50.05,173.6c-.37,0-.51.26-.58.38-.05.1-.12.17-.21.35-.07.17-.04.34.06.34l1.05-.03c.32,0,.49-.11.58-.26.09-.17.12-.22.26-.47.16-.25-.06-.34-.18-.34l-.97.02h0Z" style="fill: #243f93; stroke-width: 0px;"/>
      <path d="M74.31,174c.61-1.04.23-.4,1.1-1.86.84-1.48-.56-1.74-1.92-1.71-2.1.05-2.73.17-2.73.17-.22,0-.51.21-.62.45l-2.43,4.16c-.14.25-.09.44.11.48,0,0,.61.03,2.71-.02,2.88-.07,3.13-.61,3.79-1.68h0ZM73.41,172.2s-1.05,1.76-1.12,1.86c-.09.15-.42.62-.94.63l-1.07.03c-.2,0-.29-.02-.18-.22l1.69-2.85c.07-.1.19-.18.34-.18l1.05-.03c.34,0,.45.35.24.75h0Z" style="fill: #243f93; stroke-width: 0px;"/>
      <path d="M57.49,173.61c-.61.02-.8.07-1.34.11-.22,0-.51.18-.62.43l-.49.89c-.61,1.02.76,1.05,1.83,1.03,1.73-.04,2.55-.55,2.55-.55.22-.1.48-.38.6-.6l1.08-1.86c.12-.2.16-.54.03-.73,0,0-.15-.34-1.89-.29s-2.38.33-2.38.33c-.19.1-.43.28-.5.38-.04.15.05.24.25.24l2.54-.06c.2,0,.27.16.18.34-.21.3-.58.33-.58.33l-1.24.03h0ZM58.5,174.78v.02c-.16.25-.5.48-.69.48h-.51s-.46.02-.46.02c-.19,0-.27-.21-.11-.46v-.02c.16-.27.5-.5.69-.5l.98-.02c.2,0,.27.21.11.49h0Z" style="fill: #243f93; stroke-width: 0px;"/>
      <path d="M54.12,173.41c.16-.25.43-.43.62-.43l.78-.02c.12,0,.51-.04.53-.28.01-.39-.82-.47-1.13-.46-1.15.03-1.78.09-2.41,1.08-.49.79-.98,1.61-1.31,2.2-.28.54,0,.66.16.65l.71-.02c.27,0,.46-.04.86-.68l1.19-2.05h0Z" style="fill: #243f93; stroke-width: 0px;"/>
      <path d="M48.95,173.02l-.99,1.85c-.14.2-.76.92-.76.92-.45.52-1.52.55-2.64.58s-2.46.06-1.85-1.03l1.31-2.23c.21-.37.38-.52.59-.62,0,0,.05-.07.63-.09.39,0,.9-.02.48.67l-1.19,2.05c-.14.2-.06.39.16.39l.85-.02c.22,0,.48-.21.65-.41,0,0,.61-1.11,1.15-2.03.14-.22.49-.72.86-.73l.61-.02c.27,0,.5.06.13.7h.02Z" style="fill: #243f93; stroke-width: 0px;"/>
      <path d="M60.21,176.96l2.02-.05h.41c.22,0,.48-.19.6-.44l.4-.62c-.27.06-.54.06-.85.07-1.02.03-2.44.06-1.83-1.03l1.26-2.15c.16-.25.43-.52.59-.62,0-.05.1-.08.66-.09.37,0,.95-.12.46.67l-1.12,1.98c-.14.2-.09.39.11.39l.83-.02c.17,0,.48-.21.6-.41l1.17-1.98c.12-.25.4-.52.59-.62,0,0,.1-.08.66-.09.32,0,.95-.12.46.67l-.98,1.66c-.05.07-.07.1-.12.22l-1.24,2.13c-.14.22-.4.5-.59.62,0,0-.84.51-2.55.55h-.24c-1.59,0-1.51-.1-1.61-.17-.1-.02-.2-.17-.18-.36.02-.17.24-.3.5-.31h0Z" style="fill: #243f93; stroke-width: 0px;"/>
      <path d="M43.45,150.04s-.05.03-.07.05c-2.05,3.03-3.24,5.03-4.5,7.5l-.14.27-.02.1c-.12.25-.08.51.09.73.81,1.2,5.21,2.53,14.94,2.29,7.26-.18,14.96-1.54,14.91-3.74-.05-2.07-7.69-3.13-15.07-2.94-2.46.06-4.87.44-5.55.58.63-1.04,3.32-4.84,3.32-4.86t.05-.07v-.05c-.05-.02-.08-.05-.12-.05l-7.82.19h0ZM46.47,157.79c-.01-.44,2.73-1.14,7.16-1.25s7.18.46,7.19.89c.01.49-2.7,1.16-7.14,1.27-4.44.11-7.21-.43-7.22-.92h0Z" style="fill: #243f93; stroke-width: 0px;"/>
      <path d="M49.42,168.67c1.24,0,36.25.34,36.73-12.08.38-10.28-25.34-8.66-25.34-8.66-.05,0-.22,0-.22.13,0,.15.08.17.17.17,7.14-.18,18.82,2.39,18.6,8.54-.17,4.98-9.09,11.05-29.96,11.57-.1,0-.19.1-.19.18,0,.07.08.14.2.17h0Z" style="fill: #243f93; stroke-width: 0px;"/>
      <polygon points="81.48 166.97 80.79 166.99 80.79 166.84 82.35 166.8 82.35 166.95 81.72 166.96 81.75 168.18 81.51 168.19 81.48 166.97" style="fill: #243f93; stroke-width: 0px;"/>
      <polygon points="82.69 166.79 82.98 166.79 83.52 167.92 84.03 166.76 84.32 166.75 84.36 168.12 84.16 168.12 84.14 167 84.11 167 83.63 168.14 83.43 168.14 82.89 167.03 82.92 168.15 82.73 168.16 82.69 166.79" style="fill: #243f93; stroke-width: 0px;"/>
      <path d="M45.46,173.5s.21-.47.43-.62,1.42-.19,1.41.02c-.01.31-.28.69-.28.69l1.8-.34s.38-.6.36-.96c-.01-.13,0-.27-.24-.43-.17-.12-3.25.07-3.64.08s-.76.46-.76.46l-.87,1.31" style="fill: #243f93; stroke-width: 0px;"/>
    </g>
    <g>
      <path d="M217.59,152.74v-8.59h3.22c.66,0,1.18.09,1.58.26s.71.44.93.8.34.74.34,1.13c0,.37-.1.71-.3,1.04s-.5.59-.9.79c.52.15.92.41,1.2.78s.42.8.42,1.3c0,.4-.08.78-.25,1.12s-.38.61-.63.8-.56.33-.94.42-.84.14-1.39.14h-3.28ZM218.73,147.76h1.86c.5,0,.87-.03,1.08-.1.29-.09.51-.23.65-.43s.22-.45.22-.75c0-.29-.07-.54-.21-.75s-.33-.37-.59-.45-.69-.12-1.31-.12h-1.72v2.6ZM218.73,151.73h2.14c.37,0,.62-.01.77-.04.26-.05.48-.12.66-.23s.32-.27.43-.48.17-.45.17-.72c0-.32-.08-.6-.25-.83s-.39-.4-.68-.5-.71-.14-1.26-.14h-1.99v2.95Z" style="fill: #fff; stroke-width: 0px;"/>
      <path d="M225.64,152.74v-8.59h2.96c.67,0,1.18.04,1.53.12.49.11.91.32,1.26.62.45.38.79.87,1.02,1.47s.34,1.28.34,2.04c0,.65-.08,1.23-.23,1.73s-.35.92-.59,1.25-.5.59-.78.78-.62.33-1.03.43-.86.15-1.38.15h-3.1ZM226.78,151.73h1.83c.57,0,1.01-.05,1.33-.16s.58-.25.77-.45c.27-.27.48-.63.63-1.09s.23-1.01.23-1.66c0-.9-.15-1.59-.44-2.07s-.65-.81-1.08-.97c-.3-.12-.79-.18-1.47-.18h-1.8v6.56Z" style="fill: #fff; stroke-width: 0px;"/>
      <path d="M233.76,150.16v-1.06h3.24v1.06h-3.24Z" style="fill: #fff; stroke-width: 0px;"/>
      <path d="M238.32,152.74v-8.59h3.81c.77,0,1.35.08,1.75.23s.72.43.96.82.36.82.36,1.29c0,.61-.2,1.12-.59,1.54s-1,.68-1.83.8c.3.14.53.29.69.43.33.3.65.69.94,1.14l1.49,2.34h-1.43l-1.14-1.79c-.33-.52-.61-.91-.82-1.18s-.41-.46-.58-.57-.34-.19-.52-.23c-.13-.03-.34-.04-.63-.04h-1.32v3.81h-1.14ZM239.46,147.94h2.44c.52,0,.93-.05,1.22-.16s.52-.28.67-.52.23-.49.23-.77c0-.41-.15-.74-.44-1s-.76-.39-1.4-.39h-2.72v2.84Z" style="fill: #fff; stroke-width: 0px;"/>
      <path d="M246.99,152.74v-8.59h6.21v1.01h-5.07v2.63h4.75v1.01h-4.75v2.92h5.27v1.01h-6.41Z" style="fill: #fff; stroke-width: 0px;"/>
    </g>
    <text transform="translate(217.59 166.33)" style="fill: #fff; font-family: ArialMT, Arial; font-size: 8px;"><tspan x="0" y="0">200GB</tspan></text>
    <path d="M160.12,5.62C74.8,5.62,5.62,74.8,5.62,160.12s69.17,154.5,154.5,154.5,154.5-69.17,154.5-154.5S245.45,5.62,160.12,5.62ZM160.12,213.96c-29.73,0-53.84-24.1-53.84-53.84s24.1-53.84,53.84-53.84,53.84,24.1,53.84,53.84-24.1,53.84-53.84,53.84Z" style="fill: none; opacity: .92; stroke: #000; stroke-miterlimit: 10;"/>
    <circle cx="160.12" cy="160.12" r="47.71" style="fill: none; opacity: .08; stroke: #fff; stroke-miterlimit: 10;"/>
  </g>
</svg>