<?xml version="1.0" encoding="UTF-8"?>
<svg id="cd" data-name="Layer 2" xmlns="http://www.w3.org/2000/svg" viewBox="0 0 320.25 320.25">
  <g id="Layer_1-2" data-name="Layer 1">
    <path d="M160.12.5C71.97.5.5,71.97.5,160.12s71.47,159.62,159.62,159.62,159.62-71.47,159.62-159.62S248.28.5,160.12.5ZM160.12,182.1c-12.14,0-21.98-9.84-21.98-21.98s9.84-21.98,21.98-21.98,21.98,9.84,21.98,21.98-9.84,21.98-21.98,21.98Z" style="fill: #fff; opacity: .09; stroke: #fff; stroke-miterlimit: 10;"/>
    <path d="M160.12,5.62C74.8,5.62,5.62,74.8,5.62,160.12s69.17,154.5,154.5,154.5,154.5-69.17,154.5-154.5S245.45,5.62,160.12,5.62ZM160.12,213.96c-29.73,0-53.84-24.1-53.84-53.84s24.1-53.84,53.84-53.84,53.84,24.1,53.84,53.84-24.1,53.84-53.84,53.84Z" style="fill: #c6b398; stroke-width: 0px;"/>
    <circle cx="160.12" cy="160.12" r="26.45" style="fill: none; opacity: .08; stroke: #fff; stroke-miterlimit: 10;"/>
    <circle cx="160.12" cy="160.12" r="21.98" style="fill: none; stroke: #231f20; stroke-miterlimit: 10;"/>
    <circle cx="160.12" cy="160.12" r="53.84" style="fill: none; stroke: #231f20; stroke-miterlimit: 10;"/>
    <g>
      <path d="M81.85,139.84v1.14s1.11,0,1.11,0c.49,0,.81.31.99.5.15.16,3.35,3.8,3.43,3.89.08.1.08.1.08.16v1.8c0,.08,0,.16-.02.25-.05.11-.14.19-.25.22-.11.01-.21.02-.32.02h-1.11s0,1.14,0,1.14h6.25s0-1.14,0-1.14h-1.18c-.11,0-.21,0-.31-.02-.11-.03-.2-.11-.25-.22-.02-.08-.02-.16-.03-.25v-1.8c0-.06,0-.12.04-.17l3.47-3.96c.32-.35.48-.43.9-.43h1.15s0-1.14,0-1.14h-5.15s0,1.14,0,1.14h.78c.12,0,.22.08.23.2,0,.05-.01.1-.04.15-.02.02-2.16,2.54-2.18,2.56s-.04.02-.06,0c-.02-.03-2.13-2.56-2.13-2.56-.15-.18-.03-.35.14-.35h.76s0-1.14,0-1.14h-6.28Z" style="fill: #363027; stroke-width: 0px;"/>
      <path d="M51.33,139.83v1.14s1,0,1,0c.72,0,.77.4.77.75v5.34c0,.32.02.76-.44.76h-1.23s0,1.14,0,1.14h5.26s0-1.14,0-1.14h-1.28c-.51,0-.54-.23-.54-.73v-4.57s7.22,6.44,7.22,6.44h1.84s-.1-7.27-.1-7.27c0-.53.04-.71.59-.71h1.15s0-1.14,0-1.14h-5.36s0,1.14,0,1.14h1.18c.54,0,.63.21.64.71l.06,3.81-6.27-5.65h-4.48Z" style="fill: #363027; stroke-width: 0px;"/>
      <path d="M27.67,139.26c-1.13,0-2.41.21-3.5.7-1.01.45-1.84,1.18-1.84,2.38,0,.63.24,1.24.67,1.7.29.27.76.73,2,1,.55.12,1.73.3,2.9.43,1.17.12,2.31.23,2.78.36.37.09.99.22.99.92s-.66.91-.77.95c-.11.05-.9.41-2.32.41-.94-.03-1.87-.19-2.76-.47-.53-.19-1.08-.44-1.6-1.07-.21-.3-.32-.65-.33-1.01h-1.28s0,3.59,0,3.59h1.42s0-.49,0-.49c0-.11.09-.2.2-.2.04,0,.07,0,.11.03.67.29,1.37.52,2.08.67.75.16,1.23.27,2.16.27.98.02,1.96-.12,2.9-.41.62-.17,1.21-.46,1.72-.85.59-.45.93-1.15.92-1.89,0-.69-.26-1.36-.74-1.86-.27-.26-.58-.47-.92-.63-.37-.17-.74-.3-1.13-.4-.74-.18-2.4-.41-3.19-.49-.83-.09-2.28-.21-2.85-.38-.17-.05-.53-.22-.53-.64,0-.29.16-.54.48-.75.51-.32,1.54-.52,2.62-.52,1.04-.01,2.08.19,3.04.59.26.11.5.26.72.43.36.31.61.73.71,1.19h1.15s0-3.12,0-3.12h-1.28s0,.36,0,.36c0,.12-.12.27-.35.14-.58-.3-2.2-.95-4.2-.96h0Z" style="fill: #363027; stroke-width: 0px;"/>
      <path d="M43.1,139.26c-2.02,0-4.16.7-5.38,1.8-.93.85-1.47,2.06-1.46,3.32-.01,1.27.52,2.48,1.46,3.33,1.31,1.17,3.26,1.8,5.38,1.8s4.12-.62,5.39-1.8c.92-.87,1.44-2.07,1.44-3.33.01-1.26-.51-2.47-1.44-3.32-1.37-1.24-3.16-1.8-5.39-1.8h0ZM43.1,140.6c1.1,0,2.17.4,2.89,1.1.69.68,1.06,1.65,1.06,2.68,0,1.08-.33,1.96-1.06,2.68-.73.72-1.77,1.11-2.89,1.11s-2.17-.4-2.89-1.11c-.69-.72-1.07-1.68-1.05-2.68,0-1.03.36-2,1.05-2.68.72-.71,1.79-1.1,2.89-1.1h0Z" style="fill: #363027; stroke-width: 0px;"/>
      <path d="M66.52,139.83v1.14s1,0,1,0c.72,0,.77.4.77.75v5.34c0,.32.02.76-.44.76h-1.23s0,1.14,0,1.14h5.26s0-1.14,0-1.14h-1.28c-.51,0-.54-.23-.54-.73v-4.57s7.22,6.44,7.22,6.44h1.84s-.1-7.27-.1-7.27c0-.53.04-.71.59-.71h1.15s0-1.14,0-1.14h-5.36s0,1.14,0,1.14h1.18c.54,0,.63.21.64.71l.06,3.81-6.27-5.65h-4.48Z" style="fill: #363027; stroke-width: 0px;"/>
    </g>
    <path d="M160.12,5.62C74.8,5.62,5.62,74.8,5.62,160.12s69.17,154.5,154.5,154.5,154.5-69.17,154.5-154.5S245.45,5.62,160.12,5.62ZM160.12,213.96c-29.73,0-53.84-24.1-53.84-53.84s24.1-53.84,53.84-53.84,53.84,24.1,53.84,53.84-24.1,53.84-53.84,53.84Z" style="fill: none; opacity: .92; stroke: #000; stroke-miterlimit: 10;"/>
    <circle cx="160.12" cy="160.12" r="47.71" style="fill: none; opacity: .08; stroke: #fff; stroke-miterlimit: 10;"/>
    <g>
      <path d="M48.03,155.83c-.18-.35-.37-.72-.54-1.06-.5-.15-.95-.28-1.42-.41v-.8c.19-.1.31-.22.42-.22,2.47-.01,4.94-.06,7.4,0,1.79.04,3.6.07,5.35.39,2.16.4,3.7,1.79,4.57,3.82,1.04,2.43,1.03,4.94.65,7.52-.52,3.51-1.59,6.85-3.14,10.01-2.09,4.27-4.8,8.08-9.33,10.15-1.96.89-4.02,1.38-6.19,1.36-2.63-.02-5.26.01-7.89,0-.6,0-1.21-.06-1.87-.1q.5-1.01,1.83-1.3c1.75-1.09,1.96-2.99,2.54-4.65.89-2.52,1.6-5.11,2.41-7.66.97-3.07,1.97-6.13,2.92-9.21.77-2.52,1.48-5.06,2.29-7.84ZM45.68,184.29c2.18.5,3.65,0,5.03-1.34,1.38-1.35,2.27-3,3.03-4.66,2.43-5.26,4.18-10.77,5.05-16.52.17-1.15.1-2.36,0-3.53-.1-1.17-.69-2.04-1.89-2.47-.87-.31-1.7-.54-2.75-.15-.64,1.93-1.34,3.93-1.96,5.96-1.05,3.42-2.01,6.86-3.07,10.27-1.12,3.6-2.32,7.17-3.43,10.77-.15.48-.02,1.04-.02,1.66Z" style="fill: #363027; stroke-width: 0px;"/>
      <path d="M94.91,186.1c-1.71.53-5.31.57-7.17.16-.18-.94-.43-1.93-.53-2.93-.21-1.99-.34-3.99-.5-5.98-.15-1.72-.3-3.43-.46-5.15-.05-.54-.26-.92-1.1-.93-1.23,4.47-3.09,8.82-3.87,13.54.76.37,1.36.66,2.16,1.05-.37.29-.59.63-.82.63-3.18.05-6.37.06-9.55.04-.26,0-.53-.32-1.14-.72,1.13-.29,1.89-.48,2.86-.73.45-.93,1.09-1.93,1.43-3.03,1.79-5.78,3.51-11.59,5.26-17.39.7-2.3,1.47-4.57,2.12-6.89.23-.84.2-1.75.29-2.64-.67-.36-1.17-.63-1.66-.89.1-.2.13-.39.21-.42.32-.09.66-.18.99-.18,3.6,0,7.2-.01,10.8.04,2.38.04,4.27.96,5.37,3.21.51,1.05.58,2.17.37,3.25-.74,3.83-2.26,7.25-5.64,9.52-.73.49-1.56.84-2.37,1.27.35,4.02.72,8.04,1.03,12.08.1,1.27.69,2.21,1.93,3.09ZM90.14,155.52c-1.24,3.65-2.47,7.22-3.64,10.8-.29.9-.39,1.86-.57,2.8-.01.06.04.12.1.31,1.82.34,3.48.09,4.69-1.55,2.41-3.24,3.77-6.82,3.46-10.82-.99-1.53-2.33-1.79-4.05-1.53Z" style="fill: #363027; stroke-width: 0px;"/>
      <path d="M42.39,155.03c.71-.86,1.39-1.67,2.09-2.5.22.2.37.34.61.57-1.14,3.62-2.3,7.27-3.5,11.06-.37-.2-.65-.34-.92-.49.28-1.99.64-3.92-.1-5.77-1.15-2.9-2.91-3.55-5.48-2.33-2.05.97-3.38,2.6-4.47,4.43-2.66,4.46-4.39,9.28-5.52,14.36-.47,2.11-.87,4.18-.77,6.33.03.74.22,1.49.41,2.21.35,1.32,1.37,1.87,2.62,1.98,1.26.11,2.48-.21,3.52-.9,1.6-1.07,3.24-2.1,4.37-3.74.21-.3.65-.44.94-.62.64.37.6.75.36,1.28-.73,1.56-2.05,2.61-3.34,3.6-1.47,1.13-3.11,2.01-4.94,2.53-2.17.61-4.21.41-6.23-.52-.34-.16-.75-.17-1.28-.29-.42-.76-.95-1.68-1.46-2.62-1.43-2.62-1.38-5.4-1.02-8.25.34-2.75,1.41-5.28,2.11-7.92.05-.18.08-.38.17-.55,1.47-2.84,3-5.7,5.08-8.09,2.64-3.03,5.83-5.46,9.96-6.26,1.74-.33,3.25.39,4.72,1.15.66.34,1.26.81,2.07,1.34Z" style="fill: #363027; stroke-width: 0px;"/>
      <path d="M66.24,170.19c2.29-.48,9.09-.34,10.42.24-.44,1.33-.88,2.68-1.37,4.2h-10.13c-.09-1.52.84-2.93,1.09-4.43Z" style="fill: #363027; stroke-width: 0px;"/>
    </g>
    <g>
      <path d="M254.39,170.62c-.35,5.59-1.36,10.2-3.79,14.43-1.32,2.29-3.17,4.1-5.28,5.6-2.7,1.92-6.47,1.01-8.08-1.96-.7-1.29-1.28-2.78-1.41-4.22-.66-7.17.91-13.8,5.39-19.57.78-1,1.81-1.86,2.88-2.55,3.97-2.55,7.92-1.12,9.33,3.42.56,1.8.75,3.71.96,4.84ZM249.13,166c-.08-.01-.16-.02-.24-.04,0-.54,0-1.09,0-1.63,0-.2-.03-.41-.09-.61-.38-1.27-1.36-1.58-2.31-.69-.43.41-.83.94-1.03,1.5-.52,1.4-1.03,2.82-1.35,4.28-.96,4.46-1.91,8.92-2.71,13.41-.35,1.99-.42,4.05-.44,6.09,0,.5.62,1.34,1.08,1.43.51.1,1.39-.32,1.68-.79.64-1.02,1.14-2.18,1.45-3.35.7-2.63,1.31-5.29,1.84-7.96.76-3.87,1.42-7.77,2.12-11.65Z" style="fill: #000; stroke-width: 0px;"/>
      <path d="M273.47,171.3c-.36,5.19-1.39,10.1-4.32,14.38-1.2,1.76-2.76,3.43-4.52,4.61-3.93,2.63-7.84,1.05-9.3-3.47-1.1-3.41-.95-6.86-.26-10.3.74-3.62,1.74-7.19,4.03-10.16,1.18-1.53,2.59-3,4.17-4.1,3.63-2.52,7.34-1.26,9.03,3.28.67,1.81.79,3.83,1.16,5.75ZM268.1,166.18c-.07-1.03-.02-1.73-.18-2.38-.35-1.46-1.48-1.77-2.55-.72-.38.37-.73.84-.9,1.32-.55,1.53-1.14,3.06-1.48,4.65-.86,4.05-1.67,8.12-2.34,12.21-.38,2.27-.52,4.58-.61,6.88-.02.53.51,1.48.89,1.54.61.09,1.49-.24,1.92-.7.52-.56.83-1.41,1.01-2.19,1.16-5.03,2.28-10.06,3.35-15.11.41-1.92.64-3.88.9-5.5Z" style="fill: #000; stroke-width: 0px;"/>
      <path d="M232.21,161.56c1.98,0,3.95-.01,5.93,0,1.97.02,2.13.25,1.27,1.94-4,7.89-8.01,15.77-12.02,23.66-.46.91-.9,1.84-1.36,2.75-.54,1.07-2.69,1.78-3.62,1.09-.25-.18-.27-1-.09-1.37,1.04-2.14,2.16-4.24,3.27-6.35,2.37-4.52,4.76-9.03,7.14-13.55.19-.36.37-.73.54-1.1.2-.42.27-.81-.39-.81-2.59.01-5.18-.02-7.76.09-.52.02-1.1.49-1.5.9-.51.53-.82,1.25-1.3,1.81-.26.3-.72.42-1.09.63-.04-.38-.2-.81-.09-1.14.89-2.5,1.85-4.98,2.75-7.47.32-.88.96-1.04,1.77-1.04,2.18.02,4.36,0,6.54,0v-.05Z" style="fill: #000; stroke-width: 0px;"/>
      <path d="M285.28,190.28c-.75,0-1.5.03-2.25-.02-.22-.01-.43-.24-.65-.36.15-.19.27-.5.45-.54,1.09-.26,1.28-1.18,1.46-2.03.46-2.2.86-4.41,1.26-6.62.04-.19,0-.4-.02-.59-.17.16-.4.28-.51.48-1.64,2.83-3.25,5.67-4.91,8.48-.25.42-.72.7-1.09,1.05-.24-.45-.61-.88-.71-1.36-.57-2.73-1.07-5.48-1.59-8.22-.05-.26-.13-.52-.19-.79-.12.23-.31.44-.35.68-.44,2.34-.87,4.69-1.28,7.03-.13.75-.24,1.5.69,1.91.18.08.26.39.39.6-.17.1-.33.27-.5.28-1.09.03-2.18.03-3.27.01-.16,0-.32-.2-.48-.3.13-.2.24-.55.4-.57,1.26-.18,1.38-1.2,1.56-2.11.55-2.73,1.06-5.48,1.59-8.22.16-.82.3-1.58-.61-2.15-.49-.31-.33-.67.25-.77.07-.01.14,0,.2,0,4.69.36,3.75-1.09,4.82,3.75.31,1.39.53,2.81.8,4.21.05.25.17.49.26.74.18-.19.41-.35.54-.57,1.2-2.06,2.45-4.09,3.55-6.21.75-1.44,1.72-2.18,3.39-1.91.59.1,1.22-.05,1.83-.04.17,0,.49.19.48.28-.01.22-.12.56-.28.61-1.19.41-1.33,1.43-1.51,2.45-.48,2.68-.99,5.36-1.48,8.03-.12.67-.27,1.27.42,1.84.76.62.17.89-.46.93-.75.05-1.5.01-2.25.01,0,0,0,0,0,0Z" style="fill: #000; stroke-width: 0px;"/>
      <path d="M294.8,176.19c1.5,0,2.73-.1,3.93.03,1.42.15,2.7.73,2.99,2.32.27,1.48-.3,2.73-1.68,3.4-1.04.51-.89.74-.09,1.44,1.88,1.65,1.7,3.81-.3,5.37-1.35,1.05-2.94,1.42-4.58,1.5-1.56.08-3.13.05-4.69.02-.37,0-.74-.21-1.11-.32.25-.25.52-.47.73-.75.34-.47.82-.93.93-1.46.59-2.72,1.12-5.46,1.6-8.21.17-.96.57-2.05-.61-2.76-.13-.08-.14-.34-.2-.52.24-.08.48-.23.71-.22.88.03,1.76.11,2.37.15ZM297.62,185.6c-.04-.31.05-.82-.17-1.09-.39-.47-.91-.98-1.46-1.12-.79-.2-.95.57-1.07,1.18-.21,1.13-.45,2.26-.55,3.41-.1,1.23.51,1.59,1.61,1.01,1.32-.7,1.54-1.96,1.64-3.38ZM298.43,179.19c0-.2.07-.45-.01-.6-.31-.54-.57-1.38-1.03-1.51-.76-.22-1.13.53-1.27,1.25-.17.86-.35,1.73-.47,2.59-.15,1.08.23,1.44,1.14,1.04,1.2-.52,1.66-1.51,1.64-2.78Z" style="fill: #000; stroke-width: 0px;"/>
    </g>
    <g id="g10">
      <g id="g12">
        <path id="path14" d="M248.16,130.49c0,.09,0,.16,0,.18-.02.19,0,.28-.56.28s-.53-.09-.56-.28c0-.06-.01-.41-.01-.57,0-.16,0-.5.01-.57.02-.19,0-.28.56-.28s.53.09.56.28c0,.03,0,.1,0,.19h.76c0-.17-.01-.32-.02-.39-.04-.39.11-.76-1.3-.76s-1.26.37-1.3.76c-.01.13-.03.44-.03.77,0,.32.01.64.03.77.04.39-.11.76,1.3.76s1.26-.37,1.3-.76c0-.07.02-.21.02-.38h-.76" style="fill: #010101; stroke-width: 0px;"/>
        <path id="path16" d="M239.14,128.66l-.74,2.17-.74-2.17h-1.11s0,2.91,0,2.91h.74v-2.17l.74,2.17h.74l.74-2.17v2.17h.74v-2.91h-1.11" style="fill: #010101; stroke-width: 0px;"/>
        <path id="path18" d="M249.09,128.65h2.13v.74h-.7v2.17h-.74v-2.17h-.7v-.74" style="fill: #010101; stroke-width: 0px;"/>
        <path id="path20" d="M243.36,131.57l.85-2.91h1.11l.85,2.91h-.74l-.18-.6h-.97l.14-.47h.7l-.35-1.19-.67,2.26h-.74" style="fill: #010101; stroke-width: 0px;"/>
        <path id="path22" d="M234.75,129.25c.56,0,.53.09.56.28,0,.06.01.41.01.57,0,.16,0,.5-.01.57-.02.19,0,.28-.56.28s-.53-.09-.56-.28c0-.06-.01-.41-.01-.57,0-.16,0-.5.01-.57.02-.19,0-.28.56-.28v-.67c-1.41,0-1.26.37-1.3.76-.01.13-.03.44-.03.77,0,.32.01.64.03.77.04.39-.11.76,1.3.76s1.26-.37,1.3-.76c.01-.13.02-.44.03-.77,0-.32-.01-.64-.03-.77-.04-.39.11-.76-1.3-.76v.67" style="fill: #010101; stroke-width: 0px;"/>
        <path id="path24" d="M232.25,130.49c0,.09,0,.16,0,.18-.02.19,0,.28-.56.28s-.53-.09-.56-.28c0-.06-.01-.41-.01-.57,0-.16,0-.5.01-.57.02-.19,0-.28.56-.28s.53.09.56.28c0,.03,0,.1,0,.19h.76c0-.17-.01-.32-.02-.39-.04-.39.11-.76-1.3-.76s-1.26.37-1.3.76c-.01.13-.03.44-.03.77,0,.32.01.64.03.77.04.39-.11.76,1.3.76s1.26-.37,1.3-.76c0-.07.02-.21.02-.38h-.76" style="fill: #010101; stroke-width: 0px;"/>
        <path id="path26" d="M242.06,130.9h-.45v-.66h.45c.56,0,.54-.09.56-.29,0-.06,0-.01,0-.17,0-.16,0-.11,0-.17-.02-.19,0-.28-.56-.28h-.45s0,2.24,0,2.24h-.74v-2.91h1.19c1.41,0,1.26.37,1.31.76,0,.05,0,.26,0,.37,0,.09,0,.3,0,.37-.04.39.1.75-1.31.75" style="fill: #010101; stroke-width: 0px;"/>
        <path id="path28" d="M249.92,144.65c.56,0,.53.09.56.28,0,.06.01.41.01.57,0,.16,0,.5-.01.57-.02.19,0,.28-.56.28s-.53-.09-.56-.28c0-.06-.01-.41-.01-.57s0-.5.01-.57c.02-.19,0-.28.56-.28v-.67c-1.41,0-1.26.37-1.3.76-.01.13-.03.44-.03.77,0,.32.01.64.03.77.04.39-.11.76,1.3.76s1.26-.37,1.3-.76c.01-.13.02-.44.03-.77,0-.32-.01-.64-.03-.77-.04-.39.11-.76-1.3-.76v.67" style="fill: #010101; stroke-width: 0px;"/>
        <path id="path30" d="M238.17,146.94l.85-2.91h1.11l.85,2.91h-.74l-.18-.6h-.97l.14-.47h.7l-.35-1.19-.67,2.26h-.74" style="fill: #010101; stroke-width: 0px;"/>
        <path id="path32" d="M231.98,146.94l.85-2.91h1.11l.85,2.91h-.74l-.18-.6h-.97l.14-.47h.7l-.34-1.19-.67,2.26h-.74" style="fill: #010101; stroke-width: 0px;"/>
        <path id="path34" d="M225.14,144.05v2.91h-.74v-2.91h.74" style="fill: #010101; stroke-width: 0px;"/>
        <path id="path36" d="M229.48,144.05v2.91h-.74v-2.91h.74" style="fill: #010101; stroke-width: 0px;"/>
        <path id="path38" d="M229.88,144.05h2.13v.74h-.7v2.17h-.74v-2.17h-.7v-.74" style="fill: #010101; stroke-width: 0px;"/>
        <path id="path40" d="M235.94,146.23v-2.18h-.74v2.91h1.92v-.74h-1.18" style="fill: #010101; stroke-width: 0px;"/>
        <path id="path42" d="M248.14,144.05v2.91h-.74v-2.91h.74" style="fill: #010101; stroke-width: 0px;"/>
        <path id="path44" d="M245.22,144.06h.4c1.41,0,1.26.37,1.3.76.01.13.03.35.03.67s-.01.6-.03.73c-.04.39.11.76-1.3.76h-1.3v-2.91h.89v.67s-.15,0-.15,0v1.58h.55c.56,0,.53-.1.56-.29,0-.06.01-.37.01-.53,0-.16,0-.41-.01-.47-.02-.19,0-.28-.56-.28h-.41s.01-.67.01-.67" style="fill: #010101; stroke-width: 0px;"/>
        <path id="path46" d="M243.84,145.5v-1.45h-.76v1.45c0,.16,0,.5-.01.57-.02.19,0,.28-.56.28s-.53-.09-.56-.28c0-.06-.01-.41-.01-.57v-1.45s-.76,0-.76,0v1.45c0,.32.01.64.03.77.04.39-.11.76,1.3.76s1.26-.37,1.3-.76c.01-.13.02-.44.03-.77" style="fill: #010101; stroke-width: 0px;"/>
        <path id="path48" d="M227.5,145.89c0,.09,0,.16,0,.18-.02.19,0,.28-.56.28s-.53-.09-.56-.28c0-.06-.01-.41-.01-.57,0-.16,0-.5.01-.57.02-.19,0-.28.56-.28s.53.09.56.28c0,.03,0,0,0,.1h.76c0-.17-.01-.22-.02-.3-.04-.39.11-.76-1.3-.76s-1.26.37-1.3.76c-.01.13-.03.44-.03.77,0,.32.01.64.03.77.04.39-.11.76,1.3.76s1.26-.37,1.3-.76c0-.07.02-.21.02-.38h-.76" style="fill: #010101; stroke-width: 0px;"/>
        <path id="path50" d="M226.93,145.42v.47h1.32v-.47h-1.32" style="fill: #010101; stroke-width: 0px;"/>
        <path id="path52" d="M222.19,144.06h.4c1.41,0,1.26.37,1.3.76.01.13.03.35.03.67,0,.32-.01.6-.03.73-.04.39.11.76-1.3.76h-1.3v-2.91h.89v.67s-.15,0-.15,0v1.58h.55c.56,0,.53-.1.56-.29,0-.06.01-.37.01-.53,0-.16,0-.41-.01-.47-.02-.19,0-.28-.56-.28h-.41s.01-.67.01-.67" style="fill: #010101; stroke-width: 0px;"/>
        <path id="path54" d="M227.61,142.53h-4.65c-.67,0-1.22-.55-1.22-1.22v-7.08c0-.67.55-1.22,1.22-1.22h2.91c.35,0,.63-.29.63-.64v-2.83c0-.15.13-.27.27-.27h1.71c.15,0,.27.12.27.27l.02,12.72c0,.15-.12.27-.27.27h-.89s-.02.63-.02.63h1.16c.35,0,.63-.28.63-.63v-13.25c0-.35-.28-.63-.63-.63h-2.24c-.35,0-.63.28-.63.63v2.84c0,.15-.12.27-.26.27h-2.66c-1.03,0-1.86.83-1.86,1.85v7.08c0,1.03.83,1.86,1.86,1.86h4.63s.02-.63.02-.63" style="fill: #010101; stroke-width: 0px;"/>
        <path id="path56" d="M225.89,139.93v-4.58c0-.38-.31-.69-.69-.69s-.69.31-.69.69v4.94c0,.38.31.69.69.69s.69-.31.69-.69v-.36l.63.02v.34c0,.73-.59,1.33-1.33,1.33s-1.33-.59-1.33-1.33v-4.94c0-.73.59-1.33,1.33-1.33s1.33.59,1.33,1.33v4.6l-.63-.02" style="fill: #010101; stroke-width: 0px;"/>
        <path id="path58" d="M232.03,142.53h-.87c-.15,0-.27-.12-.27-.27v-8.98c.01-.15.13-.27.28-.27h1.71c.15,0,.27.12.27.27l.02,8.98c0,.15-.12.27-.27.27h-.86v.63h1.12c.35,0,.63-.28.63-.63v-9.51c0-.35-.28-.63-.63-.63h-2.24c-.35,0-.63.28-.63.63v9.51c0,.35.28.63.63.63h1.13s0-.63,0-.63" style="fill: #010101; stroke-width: 0px;"/>
        <path id="path60" d="M240.07,134.79h-1.87c-.58,0-1.04.46-1.04,1.04s.47,1.04,1.04,1.04h2.57c.67,0,1.22.55,1.22,1.22v3.2c0,.67-.55,1.22-1.23,1.22h-5.1c-.15,0-.27-.11-.27-.26v-1.24c0-.15.12-.27.27-.27h3.47c.58-.01,1.04-.48,1.04-1.06s-.47-1.04-1.04-1.04h-2.51c-.67,0-1.22-.56-1.22-1.23v-3.19c0-.67.55-1.22,1.22-1.22l4.72-.02c.15,0,.27.12.27.27v1.27c0,.15-.12.27-.27.27h-1.27s-.02.62-.02.62h1.55c.35,0,.63-.28.63-.63v-1.77c0-.35-.28-.63-.63-.63h-4.99c-1.03,0-1.86.83-1.86,1.86v3.19c0,1.03.83,1.86,1.86,1.86h2.51c.23,0,.42.18.42.42s-.19.42-.42.42h-3.74c-.35,0-.63.28-.63.63v1.77c0,.35.28.63.63.63h5.37c1.03,0,1.86-.83,1.86-1.86v-3.2c0-1.03-.82-1.86-1.85-1.86h-2.57c-.23,0-.42-.18-.42-.41s.19-.42.42-.42h1.85s.02-.62.02-.62" style="fill: #010101; stroke-width: 0px;"/>
        <path id="path62" d="M249.51,136.54h.8c.15,0,.27-.12.27-.27v-2.05c0-.67-.55-1.22-1.22-1.22h-4.03c-.67,0-1.22.55-1.22,1.22v7.08c0,.67.55,1.22,1.22,1.22h4.03c.67,0,1.22-.55,1.22-1.22v-1.94c0-.15-.12-.27-.26-.27h-1.52c-.15,0-.27.12-.27.27v.93c0,.73-.45,1.33-1.18,1.33s-1.19-.59-1.19-1.33v-4.94c0-.73.46-1.33,1.19-1.33s1.19.59,1.19,1.33v.93c0,.15.11.27.26.27h.71l-.02.64h-.96c-.35,0-.63-.28-.63-.63v-1.2c0-.38-.17-.69-.55-.69s-.56.31-.56.69v4.94c0,.38.18.69.56.69s.56-.31.56-.69v-1.2c0-.35.28-.63.62-.63h2.05c.35,0,.63.28.63.63v2.21c0,1.03-.83,1.86-1.86,1.86h-4.03c-1.03,0-1.86-.83-1.86-1.86v-7.08c0-1.03.83-1.86,1.86-1.86h4.03c1.03,0,1.86.83,1.86,1.86v2.32c0,.35-.28.63-.63.63h-1.1l.02-.64" style="fill: #010101; stroke-width: 0px;"/>
      </g>
    </g>
    <g>
      <path d="M238.29,153.61c-.16,0-.3.06-.41.19-.11.13-.16.32-.16.58,0,.28.04.48.11.6.11.18.27.27.46.27.16,0,.29-.07.4-.2.11-.13.17-.33.17-.6,0-.3-.05-.51-.16-.64-.11-.13-.25-.2-.41-.2Z" style="fill: #231f20; stroke-width: 0px;"/>
      <path d="M240.86,154.72c-.09.06-.13.14-.13.24s.04.18.11.25.16.1.27.1c.12,0,.24-.04.35-.12.08-.06.14-.14.16-.23.02-.06.03-.17.03-.33v-.14c-.09.03-.23.06-.42.1s-.32.08-.37.12Z" style="fill: #231f20; stroke-width: 0px;"/>
      <path d="M244.23,153.61c-.16,0-.3.06-.41.19-.11.13-.16.32-.16.58s.04.47.13.6c.12.18.28.27.47.27.15,0,.28-.06.39-.19.11-.13.16-.33.16-.61,0-.3-.05-.51-.16-.64-.11-.13-.25-.2-.41-.2Z" style="fill: #231f20; stroke-width: 0px;"/>
      <path d="M233.35,153.65c-.18,0-.33.07-.45.21-.12.14-.18.33-.18.59s.06.45.18.59c.12.14.27.21.45.21s.33-.07.45-.21.18-.34.18-.6-.06-.45-.18-.59-.27-.21-.45-.21Z" style="fill: #231f20; stroke-width: 0px;"/>
      <path d="M227.64,153.61c-.15,0-.27.05-.37.16s-.15.26-.14.44h1.03c0-.2-.06-.35-.15-.45-.1-.1-.22-.15-.36-.15Z" style="fill: #231f20; stroke-width: 0px;"/>
      <path d="M248.18,149.83h-23.86c-1.67,0-3.03,1.36-3.03,3.03v2.18c0,1.67,1.36,3.03,3.03,3.03h23.86c1.67,0,3.03-1.36,3.03-3.03v-2.18c0-1.67-1.36-3.03-3.03-3.03ZM225.36,155.74l-.52-.78c-.19-.28-.31-.45-.38-.53-.07-.07-.14-.12-.22-.15-.08-.03-.2-.04-.36-.04h-.15v1.49h-.72v-3.58h1.52c.38,0,.66.03.83.1.17.06.31.18.42.34.1.16.16.35.16.56,0,.27-.08.49-.24.67-.16.17-.39.29-.71.33.16.09.29.19.39.3s.24.3.41.58l.44.7h-.86ZM227.28,155.11c.11.11.24.17.4.17.11,0,.2-.03.27-.09s.13-.15.17-.28l.68.11c-.09.25-.23.44-.42.57-.19.13-.43.2-.71.2-.45,0-.78-.15-1-.44-.17-.24-.26-.53-.26-.89,0-.43.11-.77.34-1.01.22-.24.51-.37.85-.37.39,0,.69.13.91.38.22.25.33.65.32,1.17h-1.72c0,.2.06.36.17.47ZM231.28,155.56c-.2.16-.46.24-.8.24-.38,0-.68-.12-.91-.36s-.34-.57-.34-.99.11-.76.34-1c.23-.24.53-.36.92-.36.32,0,.57.07.75.2.19.14.32.34.4.62l-.68.12c-.02-.14-.07-.24-.16-.31-.08-.07-.18-.1-.31-.1-.17,0-.31.06-.41.18-.1.12-.15.31-.15.59,0,.31.05.52.16.65s.24.19.42.19c.13,0,.24-.04.32-.11.08-.07.14-.2.18-.38l.67.11c-.07.31-.21.54-.4.7ZM234.31,155.41c-.25.26-.57.39-.96.39-.24,0-.46-.05-.68-.16s-.38-.26-.49-.47c-.11-.21-.17-.46-.17-.76,0-.23.06-.45.17-.66.11-.21.27-.38.48-.49s.44-.17.69-.17c.39,0,.71.13.96.38.25.25.38.58.38.97s-.13.72-.38.98ZM236.66,153.81c-.12-.07-.22-.11-.32-.11s-.18.03-.24.08c-.07.05-.12.15-.16.29s-.06.43-.06.87v.8h-.69v-2.59h.64v.37c.11-.17.21-.29.29-.34s.19-.08.3-.08c.16,0,.31.04.45.13l-.21.6ZM239.55,155.74h-.64v-.38c-.11.15-.23.26-.38.33-.14.07-.29.11-.44.11-.3,0-.55-.12-.77-.36-.21-.24-.32-.57-.32-1s.1-.77.31-1c.21-.23.47-.34.78-.34.29,0,.54.12.75.36v-1.29h.69v3.58ZM241.8,155.74s-.04-.11-.07-.2c-.01-.04-.02-.07-.02-.08-.12.11-.24.2-.38.26-.13.06-.28.09-.43.09-.27,0-.48-.07-.63-.22-.15-.15-.23-.33-.23-.55,0-.15.04-.28.11-.39.07-.12.17-.2.29-.26.13-.06.31-.11.55-.16.32-.06.54-.12.67-.17v-.07c0-.13-.03-.23-.1-.28-.06-.06-.19-.08-.37-.08-.12,0-.22.02-.29.07-.07.05-.12.13-.17.25l-.62-.11c.07-.25.19-.44.36-.56s.42-.18.76-.18c.31,0,.53.04.68.11.15.07.25.16.32.28.06.11.09.32.09.61v.8c0,.23,0,.4.03.5.02.11.06.22.12.35h-.68ZM245.19,155.44c-.21.24-.47.36-.77.36-.15,0-.29-.04-.44-.11-.14-.07-.27-.18-.37-.33v.38h-.64v-3.58h.69v1.29c.21-.24.46-.36.75-.36.32,0,.58.11.78.34.21.23.31.56.31.99s-.11.78-.32,1.02ZM246.75,155.74h-.69v-3.58h.69v3.58ZM248.12,155.11c.11.11.24.17.4.17.11,0,.2-.03.27-.09s.13-.15.17-.28l.68.11c-.09.25-.23.44-.42.57-.19.13-.43.2-.71.2-.45,0-.78-.15-1-.44-.17-.24-.26-.53-.26-.89,0-.43.11-.77.34-1.01.22-.24.51-.37.85-.37.39,0,.69.13.91.38.22.25.33.65.32,1.17h-1.72c0,.2.06.36.17.47Z" style="fill: #231f20; stroke-width: 0px;"/>
      <path d="M248.48,153.61c-.15,0-.27.05-.37.16s-.15.26-.14.44h1.03c0-.2-.06-.35-.15-.45-.1-.1-.22-.15-.36-.15Z" style="fill: #231f20; stroke-width: 0px;"/>
      <path d="M225.19,153.21c0-.12-.03-.22-.1-.29-.06-.07-.16-.12-.27-.14-.06,0-.23-.01-.53-.01h-.56v.91h.53c.35,0,.56-.01.65-.04.09-.03.15-.08.2-.15s.07-.16.07-.27Z" style="fill: #231f20; stroke-width: 0px;"/>
    </g>
  </g>
</svg>