<?xml version="1.0" encoding="UTF-8"?>
<svg id="Layer_2" data-name="Layer 2" xmlns="http://www.w3.org/2000/svg" viewBox="0 0 213.83 213.83">
  <defs>
    <style>
      .cls-1 {
        opacity: .08;
      }

      .cls-1, .cls-2, .cls-3 {
        fill: none;
      }

      .cls-1, .cls-2, .cls-3, .cls-4, .cls-5 {
        stroke-miterlimit: 10;
      }

      .cls-1, .cls-5 {
        stroke: #fff;
      }

      .cls-2 {
        opacity: .92;
        stroke: #000;
      }

      .cls-3, .cls-4 {
        stroke: #231f20;
      }

      .cls-4 {
        fill: #231f20;
      }

      .cls-5 {
        opacity: .09;
      }

      .cls-5, .cls-6 {
        fill: #fff;
      }

      .cls-6, .cls-7 {
        stroke-width: 0px;
      }

      .cls-7 {
        fill: #415c8f;
      }
    </style>
  </defs>
  <g id="disc" data-name="Layer 1">
    <path class="cls-5" d="M106.92.5C48.14.5.5,48.14.5,106.92s47.64,106.42,106.42,106.42,106.42-47.64,106.42-106.42S165.69.5,106.92.5ZM106.92,121.57c-8.09,0-14.65-6.56-14.65-14.65s6.56-14.65,14.65-14.65,14.65,6.56,14.65,14.65-6.56,14.65-14.65,14.65Z"/>
    <path class="cls-7" d="M106.92,3.92C50.03,3.92,3.92,50.03,3.92,106.92s46.11,103,103,103,103-46.11,103-103S163.8,3.92,106.92,3.92ZM106.92,142.81c-19.82,0-35.89-16.07-35.89-35.89s16.07-35.89,35.89-35.89,35.89,16.07,35.89,35.89-16.07,35.89-35.89,35.89Z"/>
    <circle class="cls-1" cx="106.92" cy="106.92" r="17.63"/>
    <circle class="cls-3" cx="106.92" cy="106.92" r="14.65"/>
    <circle class="cls-3" cx="106.92" cy="106.92" r="35.89"/>
    <path class="cls-2" d="M106.92,3.92C50.03,3.92,3.92,50.03,3.92,106.92s46.11,103,103,103,103-46.11,103-103S163.8,3.92,106.92,3.92ZM106.92,142.81c-19.82,0-35.89-16.07-35.89-35.89s16.07-35.89,35.89-35.89,35.89,16.07,35.89,35.89-16.07,35.89-35.89,35.89Z"/>
    <circle class="cls-1" cx="106.92" cy="106.92" r="31.81"/>
    <path class="cls-4" d="M135.24,128.95c-6.57,8.43-16.81,13.86-28.32,13.86s-21.75-5.43-28.32-13.86H6.29c10.09,46.3,51.31,80.97,100.63,80.97s90.54-34.67,100.63-80.97h-72.31Z"/>
    <g>
      <path class="cls-6" d="M56.64,157.25h-16.97s-.07-.02-.11-.03c-.78-.14-1.33-.58-1.62-1.31-.06-.15-.09-.31-.14-.47,0-.18,0-.35,0-.53,0-.03.02-.05.03-.08.14-.84.76-1.49,1.59-1.68.08-.02.17-.04.25-.06,5.66,0,11.31,0,16.97,0,.04.01.07.02.11.03.93.13,1.66.9,1.75,1.85.09.92-.46,1.82-1.33,2.13-.17.06-.36.1-.53.14ZM48.14,156.73h0c2.77,0,5.55,0,8.32,0,.59,0,1.05-.28,1.34-.8.29-.52.27-1.05-.03-1.56-.31-.51-.78-.75-1.37-.75-2.83,0-5.67,0-8.5,0-2.69,0-5.37,0-8.06,0-1.17,0-1.91,1.3-1.32,2.32.31.54.79.79,1.42.79,2.74,0,5.47,0,8.21,0Z"/>
      <path class="cls-6" d="M40.8,154.15h.59v2.05c-.17,0-.34,0-.51,0-.04,0-.08-.06-.11-.1-.25-.39-.49-.78-.74-1.18-.03-.05-.07-.11-.13-.16v1.43h-.58v-2.03h.57c.28.44.58.88.87,1.33,0,0,.02,0,.03,0v-1.33Z"/>
      <path class="cls-6" d="M50.6,154.79v-.69h.59v2.1c-.2,0-.39,0-.58,0-.03,0-.06,0-.1,0-.17,0-.35.02-.52-.01-.28-.05-.46-.27-.51-.55-.05-.32.1-.64.35-.78.24-.13.4-.15.77-.06ZM50.61,155.48h0c0-.13,0-.25,0-.38,0-.12-.08-.19-.2-.2-.12-.01-.21.04-.24.15-.08.27-.08.55,0,.82.04.13.14.17.26.15.12-.02.17-.11.17-.22,0-.11,0-.21,0-.32Z"/>
      <path class="cls-6" d="M49.29,156.2h-.61c0-.17,0-.34,0-.5,0-.13,0-.26,0-.4,0-.22-.15-.34-.37-.28-.13.03-.19.1-.19.24,0,.26,0,.53,0,.79,0,.05,0,.1,0,.15h-.61v-1.39h.61s.01.08.02.13c.02-.01.05-.02.06-.03.2-.16.43-.19.68-.16.25.03.4.18.42.45.02.33,0,.66,0,1.01Z"/>
      <path class="cls-6" d="M54.9,156.2h-.59c0-.05,0-.11,0-.16,0-.25,0-.5,0-.75,0-.22-.14-.33-.36-.28-.14.03-.2.1-.2.24,0,.26,0,.52,0,.78,0,.05,0,.1,0,.17h-.62v-1.4h.61s.02.08.03.14c.2-.16.41-.22.66-.21.29.02.46.15.48.43.02.34,0,.68,0,1.04Z"/>
      <path class="cls-6" d="M43.07,156.2h-.61v-1.39h.6s.02.07.03.13c.02-.01.04-.02.06-.03.23-.18.5-.21.77-.14.19.05.3.18.31.38.01.35,0,.69,0,1.05h-.61c0-.1,0-.2,0-.29,0-.22,0-.45,0-.67,0-.14-.11-.22-.29-.22-.15,0-.27.1-.27.23,0,.26,0,.53,0,.79,0,.05,0,.11,0,.17Z"/>
      <path class="cls-6" d="M52.16,156.21c-.1-.02-.2-.03-.3-.05-.38-.09-.54-.37-.53-.75,0-.37.23-.59.61-.65.23-.04.46-.02.67.07.26.11.38.33.4.6.01.26-.06.49-.31.63-.16.09-.34.15-.53.15ZM52.4,155.47s0,0,0,0c0-.11,0-.22,0-.32-.02-.13-.1-.21-.22-.22-.13,0-.24.05-.25.19-.02.23-.02.47,0,.7.01.14.15.22.26.21.12-.02.21-.12.21-.26,0-.1,0-.19,0-.29Z"/>
      <path class="cls-6" d="M47.39,155.46h-1.02c.02.15.02.27.05.4.02.09.07.16.18.16.1,0,.18-.04.22-.14.02-.07.03-.15.05-.24h.51c-.06.24-.16.42-.4.5-.26.09-.52.08-.77-.03-.23-.1-.42-.42-.4-.65.02-.31.22-.58.5-.68.21-.07.43-.07.64,0,.28.09.44.33.45.66ZM46.4,155.23h.41c.01-.2-.06-.32-.2-.33-.13,0-.21.11-.21.33Z"/>
      <path class="cls-6" d="M45.37,156.19h-.58v-1.27c-.12,0-.23-.01-.34-.02v-.22h.33c0-.1.01-.19.02-.28h.56c0,.09.01.17.02.27.1,0,.21.01.33.02v.23h-.33v1.28Z"/>
      <path class="cls-6" d="M55.73,154.92v-.23c.11,0,.22-.01.33-.02,0-.09.01-.17.02-.27h.56c0,.08.01.17.02.27.11,0,.21.01.33.02v.22c-.1,0-.2.01-.33.02v1.27h-.58v-1.27h-.34Z"/>
      <path class="cls-6" d="M42.23,154.81v1.39h-.65v-1.39h.65Z"/>
      <path class="cls-6" d="M41.59,154.14h.65v.41h-.65v-.41Z"/>
      <path class="cls-6" d="M55.49,154.98h-.29c-.02-.21-.04-.43-.07-.65h.42c-.02.22-.04.44-.06.65Z"/>
    </g>
    <path class="cls-6" d="M65.05,152.78c-1.93,1.39-1.43,2.88-.13,4.18-.75.65-1.65,1.08-1.88,1.74-.22.63.28,1.5.46,2.27-.16.03-.23.04-.29.05q-2.22.18-1.97,2.59c-.91-.09-1.8-.17-2.74-.26-.22.83-.43,1.63-.66,2.53-.82-.29-1.61-.57-2.47-.88-.42.76-.86,1.54-1.33,2.39-.7-.47-1.39-.94-2.13-1.44-.47.69-.94,1.4-1.49,2.2-.8-.68-1.49-1.27-2.23-1.89-.67.62-1.36,1.26-2.11,1.96-.56-.8-1.08-1.54-1.61-2.3-.14.11-.24.21-.35.28-.55.38-1.1.75-1.64,1.13-.32-.51-.64-1.03-.97-1.53-.17-.26-.36-.51-.56-.79-.74.3-1.49.6-2.37.96-.2-.81-.39-1.57-.62-2.48-.87.09-1.79.18-2.82.29.07-.86.13-1.66.19-2.53h-2.4c.12-.63.13-1.2.33-1.69.4-.95-.08-1.36-.85-1.67-.35-.14-.68-.32-1.17-.55,1.57-1.45,2.02-2.9.04-4.39.72-.35,1.19-.63,1.71-.82.74-.28.9-.7.53-1.39-.21-.4-.33-.84-.52-1.36.91-.1,1.73-.19,2.65-.3v-2.62c.63.13,1.2.23,1.75.36.7.16,1.15.04,1.18-.82.02-.5.17-1,.28-1.63.86.38,1.61.71,2.47,1.09.27-.81.52-1.56.8-2.4.74.48,1.46.94,2.23,1.43.52-.72.98-1.37,1.52-2.12.73.64,1.43,1.25,2.19,1.91.71-.64,1.43-1.28,2.22-1.99.3.45.64.85.87,1.31.38.76.81.89,1.48.33.4-.34.85-.6,1.42-1,.29.85.55,1.62.85,2.48.83-.4,1.58-.77,2.47-1.2.21.89.41,1.72.61,2.57.56-.11,1.06-.2,1.56-.31.98-.21,1.19-.04,1.16.92-.02.5,0,1,0,1.52.92.07,1.71.14,2.53.21-.19.9-.7,1.84-.42,2.39.29.58,1.33.78,2.26,1.26ZM49.17,164.83c.91-.18,2.72-.43,4.47-.9,2.8-.75,5.16-2.25,6.79-4.7,1.69-2.55,1.9-5.18.25-7.9-1.39-2.29-3.51-3.62-5.88-4.57-3.53-1.43-7.2-1.58-10.89-.68-3.05.74-5.74,2.1-7.76,4.63-2.59,3.25-1.85,7.39.93,10.1,3.11,3.03,7,3.89,12.09,4.02Z"/>
    <path class="cls-6" d="M56.53,185.46v-7.82c36.2-.25,72.47-.51,108.83-.77v7.94c-36.22.22-72.47.43-108.83.65ZM57.34,184.5c.47.03.81.06,1.16.06,11.19-.05,22.39-.11,33.58-.17,4.61-.02,9.23-.05,13.84-.08,8.96-.07,17.92-.16,26.88-.22,5.99-.04,11.99-.02,17.98-.05,4.33-.02,8.67-.07,13-.09.56,0,.84-.02.79-.8-.12-1.8-.04-3.62-.04-5.49-35.8.21-71.55.43-107.2.64v6.19Z"/>
    <path class="cls-6" d="M156.81,135.5h25.79v36.01c-7.8,0-15.58.03-23.36-.02-2.75-.02-2.1.46-2.15-2.2-.07-4.34-.1-8.68-.12-13.02-.01-2.86.05-5.73.05-8.59,0-3.05-.01-6.1-.04-9.15,0-.94-.1-1.88-.17-3.02ZM182.02,136.09h-24.38v34.66h24.38v-34.66Z"/>
    <path class="cls-6" d="M87.15,151.31c0,2.64.03,5.16-.04,7.69,0,.35-.46.79-.82,1.01-1.97,1.22-3.97,2.38-5.96,3.56-.11.07-.26.07-.52.14,0-.83-.03-1.6.02-2.36.02-.21.26-.47.47-.6,1.12-.71,2.22-1.5,3.42-2.05.83-.38.96-.91.94-1.66-.01-.49,0-.97,0-1.58-.73.33-1.46.46-1.43,1.51,0,.29-.43.67-.75.87-.82.52-1.7.96-2.7,1.52,0-1.23-.02-2.36.02-3.49,0-.2.19-.46.37-.56,2.1-1.27,4.22-2.52,6.34-3.77.14-.08.31-.11.62-.22Z"/>
    <path class="cls-6" d="M71.79,151.32c.82.47,1.54.82,2.18,1.28.23.17.35.6.37.92.05,1.23.12,2.47.03,3.7-.06.85.27,1.26.97,1.61.94.47,1.8,1.12,2.76,1.54.98.42,1.3,1.07,1.17,2.06-.05.4,0,.81,0,1.45-1.2-.68-2.2-1.25-3.19-1.82-.88-.5-1.75-1.04-2.65-1.51-1.69-.88-1.69-.94-1.64-2.8.06-2.09.01-4.19.01-6.44Z"/>
    <path class="cls-6" d="M79.5,149.37c-1.23.69-2.54,1.31-3.73,2.11-.83.56-1.48.61-2.25,0-.32-.25-.72-.4-1.3-.71.83-.52,1.49-.96,2.17-1.35,1.57-.92,3.15-1.82,4.74-2.72.17-.09.46-.14.6-.06,2.03,1.16,4.05,2.35,6.05,3.52-.47.39-.8.78-1.23.99-.45.22-.83.62-1.51.15-1.09-.76-2.34-1.29-3.55-1.93Z"/>
    <path class="cls-6" d="M130.12,155.93c-.54.97-1.04,1.88-1.61,2.92h1.89c-.04.56-.07.96-.1,1.37h-4.28c.67-1.23,1.25-2.31,1.85-3.37.32-.57.67-1.13.99-1.7.64-1.15,1.69-1.26,2.43-.16.78,1.17,1.46,2.4,2.35,3.57,0-1.03-.03-2.07.01-3.1.02-.42-.3-1.04.51-1.14.71-.09,1.17.08,1.5.81.48,1.08,1.12,2.09,1.82,3.37.66-1.18,1.21-2.17,1.76-3.17.6-1.1.66-1.14,2.16-.94v5.84h-1.49v-3.22c-.5.96-.92,1.81-1.4,2.64-.5.86-1.17.94-1.78.12-.62-.82-1.1-1.75-1.67-2.67.08,1.03.15,2.03.24,3.21-.9,0-1.67.05-2.42-.03-.27-.03-.59-.34-.73-.6-.51-.92-.94-1.89-1.43-2.82-.17-.33-.41-.63-.6-.93Z"/>
    <path class="cls-6" d="M124.81,158.04h-2.31v-1.38c1.07,0,2.17-.01,3.27.01.16,0,.4.17.47.32.79,1.83-.25,3.36-2.21,3.32-1.13-.02-2.26.03-3.39,0-1.14-.03-1.45-.38-1.46-1.47,0-.95-.05-1.91-.03-2.86.02-1.25.63-1.69,1.88-1.63,1.29.06,2.59-.04,3.88-.07.38,0,.76,0,1.17,0,.05.46.09.79.15,1.28h-5.31v3.35c1.13,0,2.18.03,3.22-.03.19-.01.36-.43.67-.85Z"/>
    <path class="cls-6" d="M148.12,160.23h-5.98v-5.95h6.04c.01.31.03.68.06,1.29-1.32,0-2.56.05-3.8-.02-.73-.04-.78.25-.61.85h2.41c.05.43.1.82.17,1.32h-2.58c-.03.38-.06.67-.08.93.11.09.16.17.21.17.98,0,1.97-.03,2.95-.03q1.4-.01,1.21,1.44Z"/>
    <path class="cls-6" d="M105.28,154.19c1.86,0,3.58-.05,5.29.02,1.03.04,1.43,1.01,1.12,2.26-.1.39-.1.86.02,1.24.5,1.6-.09,2.48-1.77,2.52-1.51.03-3.03,0-4.66,0v-6.04ZM110.23,157.79c-.9,0-1.79-.02-2.68.02-.2,0-.38.24-.57.36.18.22.33.6.54.63.58.08,1.19,0,1.78.03.69.04.94-.29.93-1.04ZM106.98,155.51c-.05.61-.1,1.07.73.9.53-.1,1.11.04,1.65-.04.27-.04.51-.31.76-.47-.24-.13-.48-.36-.72-.38-.77-.05-1.55-.02-2.42-.02Z"/>
    <path class="cls-6" d="M116.45,156.43c.04.37.08.75.14,1.28-.66,0-1.27-.04-1.88.02-.26.02-.5.24-.75.37.24.19.46.52.72.55.84.07,1.69.1,2.53.02,1.08-.1,1.41.34,1.12,1.53-1.24,0-2.53,0-3.81,0-2.29.02-2.27.03-2.24-2.23.01-.97-.11-1.94-.07-2.9.02-.31.38-.85.6-.85,1.82-.07,3.65-.04,5.46-.04.28,1.03.04,1.45-.98,1.38-1.08-.08-2.17-.02-3.27-.02q.11.66,2.42.89Z"/>
    <path class="cls-6" d="M97.29,156.7c-.48,0-.95,0-1.51,0-.06-.26-.13-.56-.23-.97-.93-.04-1.98-.09-3.1-.14,0,.82,0,1.66,0,2.51,0,.14,0,.4.04.4.91.13,1.82.28,2.73.3.15,0,.31-.59.46-.9.03-.06.08-.12.14-.21.06-.02.19-.1.25-.07.44.24,1.33-.52,1.37.57.07,1.65-.2,2.01-1.49,2.07-1.19.05-2.37.08-3.56.09-.98.01-1.66-.65-1.68-1.62-.02-1.11-.09-2.23.05-3.32.05-.38.63-.94,1.01-.98,1.44-.15,2.9-.18,4.36-.14.9.03,1.31.99,1.15,2.41Z"/>
    <path class="cls-6" d="M99.56,154.15v4.66c.72,0,1.27,0,1.82,0,1.73,0,1.82-.15,1.62-1.93-.09-.86-.02-1.74-.02-2.61,1.65-.14,1.64-.14,1.63,1.53,0,1.11.02,2.22.01,3.33,0,.67-.39,1.06-1.06,1.07-1.55.03-3.11.05-4.66.02-.88-.02-.93-.8-.97-1.39-.08-1.23-.04-2.47-.03-3.71,0-.53.03-.53,1.65-.98Z"/>
    <path class="cls-6" d="M76.03,152.93c1.15-.68,2.07-1.26,3.03-1.77.23-.12.65-.13.88,0,.95.52,1.87,1.1,2.98,1.77-1.16.66-2.17,1.27-3.21,1.82-.15.08-.46-.07-.67-.18-.93-.49-1.84-1.01-3.01-1.65Z"/>
    <path class="cls-6" d="M75.71,153.49c1.26.74,2.23,1.29,3.19,1.87.16.1.35.3.36.46.03,1.11.02,2.23.02,3.55-1.17-.65-2.17-1.18-3.15-1.76-.18-.1-.38-.35-.39-.54-.04-1.1-.02-2.21-.02-3.59Z"/>
    <path class="cls-6" d="M122.52,149.8v3.22c-.77.21-1.03-.1-1.02-.78,0-.99-.02-1.98.03-2.96.02-.29.27-.82.4-.81.37,0,.85.14,1.09.4.4.45.65,1.05,1.12,1.86,0-.73-.05-1.19.02-1.64.04-.24.28-.45.42-.67.2.18.55.36.56.55.05,1.12.04,2.25,0,3.37,0,.24-.22.48-.34.71-.25-.15-.6-.24-.73-.46-.52-.86-.98-1.75-1.55-2.79Z"/>
    <path class="cls-6" d="M106.88,148.43c.21.29.58.56.6.86.07,1.02.03,2.05-.02,3.07-.01.26-.24.52-.38.78-.3-.18-.73-.29-.89-.56-.47-.81-.83-1.68-1.42-2.49v2.98c-.1.06-.19.13-.29.19-.22-.2-.61-.4-.62-.61-.06-1.33-.03-2.67-.03-4.01,1.89-.35,1.67,1.44,2.58,2.22v-2.21c.16-.07.31-.15.47-.22Z"/>
    <path class="cls-6" d="M92.1,148.87c2.02-.56,1.59,1.38,2.5,2.12.05-.6.04-1.13.15-1.63.05-.24.31-.44.47-.66.16.23.44.46.45.7.05,1.23.02,2.46.02,3.91-1.91-.41-1.72-2.21-2.65-3.31,0,.84.06,1.57-.02,2.28-.04.34-.34.64-.52.96-.14-.31-.38-.61-.39-.93-.05-1.14-.02-2.28-.02-3.44Z"/>
    <path class="cls-6" d="M139.2,148.54c2.02-.56,1.59,1.38,2.5,2.12.05-.6.04-1.13.15-1.63.05-.24.31-.44.47-.66.16.23.44.46.45.7.05,1.23.02,2.46.02,3.91-1.91-.41-1.72-2.21-2.65-3.31,0,.84.06,1.57-.02,2.28-.04.34-.34.64-.52.96-.14-.31-.38-.61-.39-.93-.05-1.14-.02-2.28-.02-3.44Z"/>
    <path class="cls-6" d="M133.3,150.81c-.1-2.1.23-2.53,1.86-2.54,1.28,0,1.83.56,1.82,1.85,0,.28.03.56.02.84-.06,1.82-.87,2.42-2.65,1.99-1.29-.32-1.17-1.28-1.04-2.13ZM135.86,149.21c-.15-.11-.3-.22-.45-.32-.4.31-.99.55-1.14.96-.2.52-.11,1.18,0,1.75.05.24.51.55.77.54.31-.01.86-.31.88-.52.07-.79-.03-1.6-.06-2.41Z"/>
    <path class="cls-6" d="M127.37,148.34c1.22.17,2.72-.54,3.34.77.43.9.53,2.51,0,3.16-.59.72-2.07.71-3.35,1.07v-5.01ZM129.88,148.99c-.64.21-1.58-.24-1.68.82-.07.75.12,1.52.2,2.31h1.48v-3.13Z"/>
    <path class="cls-6" d="M118.97,149.28c-.53,0-1.06-.06-1.58.03-.23.04-.41.35-.62.53.2.15.39.4.61.42.56.06,1.12.02,1.68.02.03.87-.29.97-2.25.71-.02.37-.04.72-.08,1.28.69,0,1.27-.03,1.85.02.22.02.42.22.63.34-.21.16-.41.41-.64.45-.41.07-.84.02-1.26,0-1.14-.08-1.58-.5-1.62-1.62-.02-.59-.1-1.23.09-1.76.17-.46.61-.95,1.06-1.15.48-.21,1.1-.13,1.65-.07.25.03.48.29.72.45-.08.12-.16.24-.24.35Z"/>
    <path class="cls-6" d="M81.26,196.43c-.66.55-.19,1.79-1.13,1.97-.11-.07-.23-.14-.34-.21.35-1.05.7-2.11,1.06-3.2.38.09.72.17,1.14.28-.07.7-.13,1.39-.2,2.07l.18.1c.2-.29.49-.55.58-.87.26-.91.79-.95,1.5-.57-.36,2.32-.79,3.18-1.7,3.11.13-.35.27-.65.36-.97.08-.3.11-.61.19-1.1-.34.55-.58.98-.87,1.37-.14.19-.4.29-.61.43-.13-.27-.36-.54-.37-.81-.01-.51.11-1.02.19-1.61Z"/>
    <path class="cls-6" d="M98.63,199.1c1.57-.29,1.16,1.4,1.9,1.89.53-.42-.5-1.75,1.03-1.68-.11,1.2-.22,2.34-.33,3.57-1.63-.05-1.07-1.77-1.91-2.28-.11.65-.22,1.36-.36,2.16-1.03-.46-.58-1.16-.53-1.75.05-.62.13-1.24.19-1.91Z"/>
    <path class="cls-6" d="M107.52,199.58c.99.23,1.85.33,2.61.67.28.12.45.83.41,1.24-.12,1.3-.15,1.98-3.03,1.86v-3.77ZM108.15,200.51c.74.68-.63,1.73.69,2.08.21.06.79-.53.88-.9.16-.65-.55-1.23-1.57-1.17Z"/>
    <path class="cls-6" d="M96.13,191.43c-.95.28-1.1-.27-.93-1.14.04-.2,0-.42-.02-.63-.11-1.65-.1-1.67,1.03-1.7,1.56-.05,2.01.33,2.04,1.69.02,1.23-.56,1.81-1.79,1.78-.07,0-.14,0-.33,0ZM96.06,188.6c0,.59-.04,1.11.02,1.62.03.21.26.54.43.56.22.03.55-.15.68-.34.6-.84.1-1.74-1.14-1.85Z"/>
    <path class="cls-6" d="M112.64,203.36c-1.28-.03-1.82-.62-1.77-1.95.03-.93.73-1.74,1.49-1.74,1.22,0,1.96.8,1.95,2.08-.01.96-.7,1.63-1.66,1.61ZM111.39,201.45c.51.55.8,1.15,1.15,1.18.66.07,1.04-.49.84-1.13-.13-.42-.53-.75-.81-1.12-.33.3-.67.61-1.18,1.07Z"/>
    <path class="cls-6" d="M112.26,188.99c-.95-.05-1.78-1.29-2.32,0-.18.44.15,1.15.4,1.67.05.1.77-.11,1.31-.2-.45-.39-.69-.59-.92-.8.45-.09.9-.18,1.46-.29.05.75.09,1.35.13,1.82-.51.09-.87.18-1.23.22-.75.07-1.49.09-1.91-.75-.47-.96-.37-1.94.33-2.48.73-.56,1.51-.56,2.25-.04.2.14.28.46.5.85Z"/>
    <path class="cls-6" d="M85.57,188.08c2.1-.25,2.94.15,3.03,1.43.11,1.59-.4,1.94-3.03,1.99v-3.43ZM86.51,188.72c-.04.46-.14.85-.09,1.22.04.33.25.65.39.97.29-.22.68-.38.84-.67.45-.84-.05-1.52-1.14-1.52Z"/>
    <path class="cls-6" d="M109.52,149c.22-.15.43-.43.65-.44.88-.05,1.76-.04,2.64,0,.27.02.53.24.8.37-.27.13-.54.28-.83.37-.16.05-.35,0-.64,0v3.69c-.69.22-1.06.18-1.03-.59.04-1,.01-2.01.01-3.06h-1.35c-.08-.12-.17-.24-.25-.35Z"/>
    <path class="cls-6" d="M144.84,148.94c.22-.15.43-.43.65-.44.88-.05,1.76-.04,2.64,0,.27.02.53.24.8.37-.27.13-.54.28-.83.37-.16.05-.35,0-.64,0v3.69c-.69.22-1.06.18-1.03-.59.04-1,.01-2.01.01-3.06h-1.35c-.08-.12-.17-.24-.25-.35Z"/>
    <path class="cls-6" d="M130.1,197.72c.2.69.36,1.39.64,2.05.1.24.47.37.71.55.09-.26.28-.53.26-.78-.06-.69-.21-1.37-.33-2.1.55-.2.95-.28.98.53.03.62.23,1.23.29,1.86.07.76-.4,1.2-1.09,1.33-.68.12-1.37.1-1.61-.77-.18-.64-.39-1.27-.5-1.92-.04-.24.17-.52.26-.78.13,0,.26.02.4.03Z"/>
    <path class="cls-6" d="M127.92,200c-.01.38.05.79-.05,1.14-.22.77-.83,1.1-1.55.86-1.12-.37-1.02-1.44-.95-2.28.03-.44.56-.98,1-1.21.27-.14.8.22,1.22.36-.04.1-.08.2-.11.29-.46.07-.93.15-1.39.22.02.07.05.15.07.22.59.14,1.19.29,1.78.43l-.02-.03Z"/>
    <path class="cls-6" d="M87.44,200.72c.25-1.19.48-2.27.73-3.46.95.17,2.07-.05,2.51.95.24.55.08,1.45-.22,2.03-.67,1.31-1.83.53-3.02.48ZM88.9,198.03c-.1.37-.18.77-.32,1.14-.17.45-.35,1.01.31,1.03.36.01.93-.45,1.06-.82.26-.72-.04-1.3-1.05-1.36Z"/>
    <path class="cls-6" d="M136.8,199.85c-.41-2.02-.04-3.77.86-4.14.71.94,1.44,1.89,2.29,3.01-.38.05-.81.23-.92.11-.78-.82-1.14-.28-1.54.37-.15.24-.41.4-.69.65Z"/>
    <path class="cls-6" d="M135.46,197.56h-1.75c0,.12-.01.24-.02.36.43.07.86.22,1.28.19.72-.05,1.16.31,1.11.92-.03.4-.45.88-.83,1.12-.75.5-1.44.17-2.01-.63.68-.03,1.36-.07,2.05-.1,0-.14,0-.28,0-.42-.39-.04-.78-.15-1.16-.1-.83.09-1.23-.38-1.29-1.06-.06-.81.66-1.01,1.27-1.17.65-.17,1.19-.03,1.33.89Z"/>
    <path class="cls-6" d="M136.58,191.3c-.66-.33-1.32-.67-1.8-.91-.49.42-.79.68-1.1.94-.09-.08-.18-.17-.27-.25.33-.99.63-1.99,1-2.96.08-.22.39-.49.59-.49.2,0,.48.29.58.51.42.93.78,1.89,1.17,2.84-.06.11-.12.21-.17.32Z"/>
    <path class="cls-6" d="M87.51,198.16c-.05,1.18-.84,2-1.89,1.96-.97-.04-1.59-.72-1.57-1.74.02-1.15.76-1.97,1.73-1.93,1.02.04,1.76.77,1.72,1.71ZM84.39,198.43c.56.46.87.91,1.22.96.67.08,1-.44,1.02-1.07,0-.59-.15-1.28-.88-1.13-.44.09-.77.68-1.36,1.24Z"/>
    <path class="cls-6" d="M99.12,189.62c.07-1.31.59-1.79,1.86-1.7,1.02.07,1.55.8,1.47,2.02-.07,1.07-.77,1.63-1.95,1.54-.93-.07-1.44-.75-1.38-1.86ZM99.57,189.66c.49.5.85.86,1.21,1.22.29-.33.8-.65.82-1,.03-.6-.17-1.37-.96-1.36-.3,0-.58.6-1.07,1.14Z"/>
    <path class="cls-6" d="M115.32,188.71h-1.34c.01.07.03.13.04.2.46.2.98.33,1.36.63.21.17.34.72.21.94-.21.38-.61.76-1,.88-.31.09-.85-.1-1.08-.35-.57-.61-.47-2.3.15-2.82.26-.22.76-.28,1.12-.24.27.03.5.35.75.54l-.21.21Z"/>
    <path class="cls-6" d="M128.77,187.82c0,.71.04,1.44-.01,2.15-.06.85-.51,1.38-1.43,1.32-.82-.05-1.54-.23-1.47-1.33.05-.75,0-1.51,0-2.33.26.03.52.05.81.08,0,.72-.07,1.4.03,2.05.04.3.41.54.62.81.18-.26.47-.5.53-.78.08-.44.01-.91-.02-1.37-.05-.71.27-.88.92-.61Z"/>
    <path class="cls-6" d="M130.49,188.77c.45.15.93.23,1.33.46.33.19.73.52.77.83.04.33-.23.83-.51,1.03-.89.62-2.15.04-2.18-1.1.38.21.67.45,1,.54.25.06.55-.06.83-.11l.02-.34c-.34-.12-.75-.16-1.01-.38-.38-.33-.81-.75-.9-1.2-.05-.24.57-.87.89-.87.56,0,1.11.36,1.66.6.03.01-.03.42-.09.43-.16.04-.36-.03-.53-.08-.39-.11-.77-.22-1.16-.34-.04.18-.08.35-.12.53Z"/>
    <path class="cls-6" d="M94.02,199.04c-.57-.09-1.13-.19-1.7-.28-.06.11-.11.22-.17.32.49.26.98.53,1.79.96h-1.76c-.5.83.14.8.57.97.31.12.56.36.84.55-.34.03-.68.11-1.01.07-.55-.07-1.1-.21-1.7-.33.25-1.13.48-2.21.75-3.41.85.39,1.87.07,2.52.82-.04.11-.08.22-.13.34Z"/>
    <path class="cls-6" d="M120.02,191.28v-3.44q2.21-.17,2.61.39c-.63.14-1.24.27-1.84.41.02.07.04.15.06.22.56.16,1.12.32,1.68.48-.03.13-.07.25-.1.38h-1.62c-.16.95.43.9,1,.94.31.02.62.18.93.27-.03.11-.06.23-.09.34h-2.64Z"/>
    <path class="cls-6" d="M122.55,200.63c.02.38.2.86.04,1.12-.26.42-.7.85-1.16,1.01-.52.18-1.08-.09-1.16-.74-.08-.71-.22-1.48-.02-2.12.1-.33.9-.67,1.35-.63.7.06,1.03.66.95,1.4,0,0,0-.03,0-.03ZM121.51,202.16c.12-.02.24-.05.36-.07-.13-.76-.27-1.52-.4-2.28-.78.93-.65,1.82.04,2.35Z"/>
    <path class="cls-6" d="M122.55,200.63s0,.04,0,.03c.08-.3.08-.66.25-.89.27-.36.63-.82,1.01-.89.32-.05.88.32,1.04.65.25.51.4,1.17.31,1.72-.07.44-.49,1-.9,1.16-.65.27-1.11-.25-1.38-.83-.14-.31-.23-.64-.34-.96ZM124.1,201.77l.38-.07c-.13-.74-.26-1.47-.39-2.21-.14.03-.28.05-.42.08-.33.82-.2,1.56.42,2.2Z"/>
    <path class="cls-6" d="M100.29,153.13c-.32.02-.62.03-1.01.05v-4.56c.28-.02.58-.04,1.01-.06v4.57Z"/>
    <path class="cls-6" d="M104.51,201.74c-.03.81-.72,1.41-1.54,1.39-.86-.03-1.29-.51-1.31-1.31-.02-.79.69-1.54,1.33-1.52.81.02,1.54.72,1.52,1.45ZM103.86,201.62c-.34-.28-.62-.64-.74-.59-.25.1-.59.43-.57.64.02.26.37.49.57.73.21-.22.42-.44.74-.78Z"/>
    <path class="cls-6" d="M119.07,189.73c-.57.08-1.07.15-1.64.24-.39.24.5,1.58-.84,1.21v-3.27h2.5c.01.14.03.28.04.42-.53.06-1.05.12-1.62.19-.21,1.34,1.35.2,1.56,1.21Z"/>
    <path class="cls-6" d="M103.44,191.42c0-1.05-.03-1.96.02-2.87.01-.22.31-.43.48-.64.12.24.34.47.35.72.05.65.02,1.32.02,1.89.21.11.26.16.33.18.46.15.93.3,1.4.45-.46.09-.92.2-1.39.26-.35.04-.7,0-1.21,0Z"/>
    <path class="cls-6" d="M117.35,203.15h-2.45v-3.44c.13-.03.26-.07.4-.1.13.41.37.82.37,1.24,0,.94-.11,1.85,1.32,1.59.15-.03.36.28.54.44-.06.09-.12.18-.18.27Z"/>
    <path class="cls-6" d="M94.98,201.26c.6.2,1.17.4,1.73.59-.03.13-.06.27-.09.4-.82-.08-1.64-.17-2.66-.27.23-1.07.43-2.04.67-3.01.04-.16.31-.25.47-.38.1.19.32.39.29.56-.09.69-.26,1.36-.42,2.11Z"/>
    <path class="cls-6" d="M90.5,190.78c.67.07,1.2.12,1.73.18-.01.14-.03.28-.04.42h-2.45c-.48-1.59-.2-3.28.61-3.36.05.93.1,1.86.15,2.75Z"/>
    <path class="cls-6" d="M127.93,200.03c.03-.93-.14-1.92.92-2.8-.16,1.75-.33,3.36.97,4.67q-1,.07-1.91-1.89s.02.03.02.03Z"/>
    <path class="cls-6" d="M138.81,194.87c.95-.29,1.34.47,1.75,1.05.73,1.02.6,2.51-.29,3.27,0-1.63-.14-3.15-1.46-4.32Z"/>
    <path class="cls-6" d="M48.28,164.11c-2.46,0-4.83-.38-7.09-1.38-2.81-1.25-4.99-3.11-5.73-6.19-.59-2.43.37-4.54,2.03-6.27,2.2-2.29,5.03-3.35,8.12-3.83,2.99-.46,5.93-.17,8.72.89,2.61.99,4.98,2.49,6.14,5.18,1.05,2.43.7,5.02-1.34,7.27-2.53,2.79-5.82,3.97-9.5,4.23-.45.03-.9.07-1.36.11ZM48.37,146.75c-3.04-.03-5.71.67-8.17,2.04-2.16,1.2-3.9,2.92-4.31,5.45-.46,2.85.91,5.02,3.16,6.66,4.99,3.63,12.86,3.54,17.81.23,4.44-2.98,5.16-8.29.3-11.73-2.71-1.91-5.77-2.49-8.78-2.65Z"/>
    <path class="cls-6" d="M107.53,181.28c0-.6-.27-1.33.83-1.24.76.06,1.16.28,1.13,1.12-.03.88-.42,1.21-1.28,1.24-1,.04-.66-.63-.68-1.13Z"/>
    <path class="cls-6" d="M115.84,180.01c.99.17,1.14,1.08.33,2.56-.04-.54-.06-.86-.09-1.2-.22.33-.4.61-.59.89-.15-.15-.31-.29-.47-.45-.06.13-.16.33-.26.53-.12,0-.24-.01-.35-.02,0-.68-.02-1.36.02-2.03,0-.11.31-.29.46-.27.16.02.37.2.43.36.1.28.09.59.26.89.08-.4.16-.8.26-1.27Z"/>
    <path class="cls-6" d="M151.58,182.14c-.13-.18-.25-.36-.34-.48-.16.12-.35.27-.55.41-.14-.21-.28-.42-.42-.61-.1.21-.21.44-.31.67-.12-.21-.33-.42-.36-.64-.05-.55-.02-1.11-.02-1.67.11-.06.22-.13.33-.19.33.42.66.84.97,1.23.3-.21-.2-1.3.9-.97v2.18c-.07.02-.14.05-.21.07Z"/>
    <path class="cls-6" d="M155.43,181.14c-.18.45-.29.71-.39.96-.11,0-.22,0-.33,0-.04-.68-.11-1.36-.09-2.04,0-.11.51-.32.73-.26.4.1,1,.29,1.09.57.15.51,0,1.12-.05,1.94-.38-.47-.62-.75-.96-1.17Z"/>
    <path class="cls-6" d="M63.2,182.56c0-.64-.03-1.27.03-1.9.01-.14.36-.36.53-.34.39.03,1.03.09,1.1.3.21.64.21,1.35.3,2.16-.5-.43-.79-.68-1.08-.93-.19.24-.37.48-.56.71h-.33Z"/>
    <path class="cls-6" d="M69.07,181.93l1.06.24c.02-.06.05-.11.07-.17-.22-.13-.48-.21-.63-.39-.22-.27-.37-.62-.54-.93.44-.1,1.14-.41,1.28-.25.33.37.47.98.51,1.5.02.23-.38.68-.62.71-.4.05-.83-.16-1.25-.26.04-.15.08-.3.13-.44Z"/>
    <path class="cls-6" d="M133.12,182.06c.16-.71.28-1.43.54-2.1.03-.07,1.07.02,1.26.3.25.37.34,1.14.11,1.47-.28.39-.96.5-1.47.73-.15-.13-.29-.27-.44-.4ZM134.4,180.36c-.16.01-.31.03-.47.04-.03.43-.06.86-.11,1.56.43-.26.81-.38.81-.51,0-.36-.14-.72-.23-1.08Z"/>
    <path class="cls-6" d="M93.37,182.34c.23-.64.44-1.29.73-1.9.07-.14.62-.23.68-.15.45.63.81,1.31.73,2.31-.72-.4-1.3-1.04-1.88.16-.09-.14-.18-.28-.26-.41Z"/>
    <path class="cls-6" d="M104,180.85c.06-.19.15-.44.23-.7.08,0,.15.01.23.02v2.51c-.47-.59-.77-.97-1.11-1.39-.08.36-.15.69-.23,1.03-.11,0-.22,0-.34,0-.04-.72-.08-1.44-.14-2.48.59.44.97.74,1.35,1.02Z"/>
    <path class="cls-6" d="M154.08,182.04h-1.67v-2.35c.62.06,1.16.12,1.71.18-.01.13-.02.26-.03.39-.35.02-.69.04-1.04.07-.01.04-.02.08-.04.12.37.12.74.25,1.12.37,0,.07-.01.14-.02.21-.36.08-.72.16-1.08.24,0,.06,0,.12,0,.17.37.1.74.2,1.11.31-.02.1-.03.2-.05.3Z"/>
    <path class="cls-6" d="M62.8,181.45c-.02.86-.57,1.27-1.27,1.26-.7-.01-1.13-.53-1.02-1.29.09-.62.34-1.19,1.12-1.12.68.06,1.18.37,1.17,1.15ZM61.65,180.43c-.26.52-.49.75-.45.94.06.28.29.53.45.8.17-.19.48-.38.48-.56,0-.29-.22-.58-.47-1.17Z"/>
    <path class="cls-6" d="M127.19,181.6c-.32.19-.74.63-1.22.71-.83.13-1.08-.62-1.09-1.23,0-.55.17-1.18,1.06-1.1.85.07,1.15.53,1.25,1.63ZM125.92,182.17c.34-.52.61-.77.62-1.03,0-.19-.32-.39-.5-.59-.18.2-.47.38-.52.61-.04.21.18.48.41,1.01Z"/>
    <path class="cls-6" d="M144.19,179.75c.34.4.68.8,1.05,1.23.07-.38.14-.75.2-1.11l.37.02c0,.63.01,1.27-.01,1.9,0,.11-.15.29-.24.29-.14,0-.34-.07-.42-.18-.16-.21-.26-.47-.48-.88-.18.49-.29.8-.4,1.11-.09,0-.18.02-.26.03l-.2-2.23c.13-.06.25-.11.38-.17Z"/>
    <path class="cls-6" d="M86.71,181.56c.1-.64.16-.99.21-1.35.09,0,.18,0,.27,0v2.58c-.49-.64-.84-1.08-1.21-1.56v1.11c-.06.04-.12.09-.18.13-.15-.23-.41-.45-.41-.68,0-.5.12-1.01.19-1.51.23.09.52.12.67.28.18.19.24.49.46.99Z"/>
    <path class="cls-6" d="M73.11,182.3c-1.9.5-2.04.33-1.76-1.88h1.67c0,.08,0,.16.01.24-.34.07-.68.14-1.02.21,0,.05,0,.1,0,.15.33.08.66.16.99.23,0,.09,0,.18,0,.26-.39.08-.78.15-1.16.23-.02.06-.03.11-.05.17.44.13.88.26,1.31.39Z"/>
    <path class="cls-6" d="M129.71,179.82c.27.87.49,1.6.72,2.33-.1.06-.19.11-.29.17-.51-.41-1.02-.83-1.38.11-.46-.77-.05-1.94.95-2.61Z"/>
    <path class="cls-6" d="M111.78,182.52c-.58-.59-1.17-.89-1.81.08-.04-.11-.08-.21-.11-.32.19-.64.34-1.3.61-1.9.06-.14.79-.17.83-.09.28.65.47,1.34.69,2.02-.06.07-.13.14-.19.21Z"/>
    <path class="cls-6" d="M117.78,180.83c.29.03.59.06.88.1.05,0,.08.1.22.3-.47.15-.89.28-1.31.42.01.07.03.13.04.2.38.03.77.07,1.15.1,0,.12.02.24.03.36-.45.03-1.24.2-1.3.06-.3-.68-.39-1.44-.61-2.36.82.06,1.35.1,1.88.13,0,.1,0,.21,0,.31-.34.06-.68.12-1.02.18.01.07.02.14.03.21Z"/>
    <path class="cls-6" d="M78.61,182.57c-.33-.4-.66-.81-1-1.22-.05.41-.09.8-.14,1.19-.09,0-.17,0-.26,0v-2.42c.43.39.74.66,1.07.96.08-.22.18-.5.29-.78.11,0,.23.01.34.02.04.7.07,1.39.11,2.09-.13.06-.27.12-.4.18Z"/>
    <path class="cls-6" d="M75.97,180.16c.21.37.66.83.69,1.31.03.66-.41,1.24-1.2,1.15-.63-.07-1.06-.35-1.03-1.16.03-.89.51-1.15,1.55-1.3ZM75.57,180.48c-.28.45-.57.71-.53.9.07.28.37.5.57.74.18-.24.48-.46.51-.71.02-.22-.26-.47-.55-.93Z"/>
    <path class="cls-6" d="M92.04,180.69c.4.43.76.74,1,1.13.05.09-.3.62-.49.63-.45.03-.91-.13-1.37-.22.03-.15.05-.3.08-.44.38.06.75.11,1.27.19-.35-.64-1.94-.55-.99-1.7.36-.43.97-.19,1.51.58-.27-.04-.44-.06-.62-.09-.15-.03-.3-.06-.4-.08Z"/>
    <path class="cls-6" d="M67.05,180.3c.15.64.31,1.27.46,1.91.11-.02.21-.04.32-.05.07-.62.14-1.24.2-1.86.8.63.7,1.39.3,2.01-.17.26-.99.43-1.25.25-.85-.58-.46-1.43-.32-2.2.09-.02.19-.03.28-.05Z"/>
    <path class="cls-6" d="M101.45,180.07c.31.74.62,1.48.9,2.16h-2.13c.25-.66.53-1.42.82-2.19.14.01.28.02.42.03Z"/>
    <path class="cls-6" d="M147.23,181.77c.12-.43.25-1.06.5-1.64.05-.12.78-.14.85-.01.28.5.44,1.07.6,1.63.01.04-.34.26-.52.25-.42-.02-.83-.13-1.43-.23Z"/>
    <path class="cls-6" d="M160.19,181.91c.31-.75.63-1.5.94-2.25.14.02.27.04.41.06.31.73.62,1.47.93,2.2-.79-.26-1.39-.63-1.95.29-.11-.1-.22-.2-.33-.29Z"/>
    <path class="cls-6" d="M89.33,180.22c.1.62.19,1.24.29,1.86l.35.03.4-2.04c.14.01.28.03.42.04-.08.73-.09,1.48-.3,2.17-.05.15-.94.29-1.18.1-.73-.58-.45-1.39-.26-2.13.1-.01.19-.02.29-.03Z"/>
    <path class="cls-6" d="M106.31,180.08c.28.69.56,1.38.87,2.14-.69-.08-1.27-.14-2.1-.23.23-.58.51-1.28.78-1.97.15.02.3.04.46.05Z"/>
    <path class="cls-6" d="M119.46,180.1c.38.09.98.5,1.64-.07-.51.77-.68,1.46.15,2.12-.08.06-.15.12-.23.19-.31-.15-.61-.3-.95-.47-.1.12-.29.33-.6.68v-2.45Z"/>
    <path class="cls-6" d="M140.57,181.92h-1.95c.17-.48.31-1.14.62-1.71.26-.48.69-.32.87.13.22.54.33,1.12.46,1.58Z"/>
    <path class="cls-6" d="M99.69,180.82c-.36,0-.76-.09-1.06.04-.14.06-.1.55-.15.84l1.27.07c.05.06.11.11.16.17-.38.18-.75.48-1.14.51-.79.08-.82-.61-.92-1.15-.14-.76.34-1.15.99-1.19.35-.02.72.31,1.08.49-.08.07-.16.15-.23.22Z"/>
    <path class="cls-6" d="M123.17,182.06c.6-.35.84-.48,1.07-.61.07.1.15.19.22.29-.29.21-.63.63-.85.57-.39-.09-.95-.43-1.02-.75-.14-.63-.12-1.45.75-1.59.37-.06.8.31,1.21.48-.06.12-.11.25-.17.37-.26-.11-.52-.22-1.02-.43-.05.5-.1.95-.18,1.67Z"/>
    <path class="cls-6" d="M159.89,180.41c-.53.07-.96.1-1.36.21-.04.01,0,.69.08.71.37.08.76.04,1.4.04-.37.28-.67.68-1.01.72-.76.1-1.09-.55-1.06-1.14.02-.42.39-1.03.75-1.17.43-.17,1.07,0,1.2.63Z"/>
    <path class="cls-6" d="M58.7,180.31c.57.04,1.06.08,1.56.12,0,.11,0,.21,0,.32-.37.05-.73.1-1.36.19.54.23.88.37,1.18.49-.42.36-.78.67-1.2,1.04-.42-.27-.46-.48-.18-2.16Z"/>
    <path class="cls-6" d="M81.29,180.16c.28.2.57.4.83.58.21-.17.48-.39.76-.61.05.04.1.07.15.11-.27.76-.54,1.53-.89,2.49-.39-.89-.72-1.63-1.05-2.37.07-.07.13-.14.2-.21Z"/>
    <path class="cls-6" d="M142.36,180.02c-.28.77-.54,1.47-.84,2.3-.24-.85-.43-1.53-.65-2.3h1.49Z"/>
    <path class="cls-6" d="M80.13,181.98c.38.05.69.09,1,.14,0,.12,0,.23.01.35-.47.04-1.32.2-1.34.11-.23-.74-.3-1.53-.42-2.3.16-.03.31-.06.47-.09.09.58.18,1.16.28,1.8Z"/>
    <path class="cls-6" d="M137.11,179.92c.03.46-.05.96.13,1.35.15.31.61.48,1.11.84-.59.04-1.1.07-1.63.11v-2.28l.39-.02Z"/>
    <path class="cls-6" d="M132.03,181.33c.1-.46.2-.92.31-1.41.62.5.65,1.66-.02,2.46-.16-.36-.29-.64-.42-.93.04-.04.09-.08.13-.12Z"/>
    <path class="cls-6" d="M131.9,181.45c-.1-.14-.2-.27-.37-.49-.1.45-.18.84-.26,1.23-.09,0-.18-.01-.26-.02v-2.12c.08-.05.17-.11.25-.16.26.48.52.96.78,1.44-.04.04-.09.08-.13.12Z"/>
    <path class="cls-6" d="M84.36,180.25c.73.23.8.58.55,2.24-.38-.18-.41-.31-.55-2.24Z"/>
    <path class="cls-6" d="M121.98,180.01v2.27c-.09,0-.17,0-.26,0v-2.27c.09,0,.17,0,.26,0Z"/>
    <path class="cls-6" d="M156.95,182.09c-.03-.7-.09-1.28-.06-1.85,0-.14.37-.42.46-.38.4.17.17,1.88-.4,2.24Z"/>
    <path class="cls-6" d="M143.35,179.81v2.28c-.11,0-.23,0-.34,0v-2.3c.11,0,.23,0,.34.01Z"/>
    <path class="cls-6" d="M159.01,141.69h21.74c0,2.36-.01,4.75,0,7.14.03,4.47.07,8.93.12,13.4,0,.68-.15,1.02-.92,1.02-3.97,0-7.94.04-11.91.06-2.68.02-5.37,0-8.05.05-.8.01-1.04-.27-1.04-1.05-.01-6.67-.06-13.34-.09-20.01,0-.17.09-.33.16-.62ZM168.3,148.87c2.53-.66,4.95-1.3,7.46-1.96-.4-1.41-.78-2.77-1.17-4.16-4.31,1.15-8.59,2.29-12.92,3.45,1.58,5.48,3.12,10.84,4.66,16.19,4.41-1.17,8.6-2.28,12.84-3.4-.39-1.39-.76-2.7-1.16-4.09-2.58.64-5.06,1.25-7.57,1.87-.26-.71-.46-1.26-.69-1.86,2.45-.61,4.76-1.17,7.06-1.8.23-.06.55-.59.49-.81-.29-1.18-.69-2.32-1.06-3.5-2.3.59-4.54,1.13-6.76,1.74-.71.2-1-.04-1.11-.67-.05-.31-.05-.62-.08-1Z"/>
  </g>
</svg>