<?xml version="1.0" encoding="UTF-8"?>
<svg id="dvd" data-name="Layer 2" xmlns="http://www.w3.org/2000/svg" viewBox="0 0 320.25 320.25">
  <g id="Layer_1-2" data-name="Layer 1">
    <path d="M160.12.5C71.97.5.5,71.97.5,160.12s71.47,159.62,159.62,159.62,159.62-71.47,159.62-159.62S248.28.5,160.12.5ZM160.12,182.1c-12.14,0-21.98-9.84-21.98-21.98s9.84-21.98,21.98-21.98,21.98,9.84,21.98,21.98-9.84,21.98-21.98,21.98Z" style="fill: #fff; opacity: .09; stroke: #fff; stroke-miterlimit: 10;"/>
    <path d="M160.12,5.62C74.8,5.62,5.62,74.8,5.62,160.12s69.17,154.5,154.5,154.5,154.5-69.17,154.5-154.5S245.45,5.62,160.12,5.62ZM160.12,213.96c-29.73,0-53.84-24.1-53.84-53.84s24.1-53.84,53.84-53.84,53.84,24.1,53.84,53.84-24.1,53.84-53.84,53.84Z" style="fill: #cb9c62; stroke-width: 0px;"/>
    <circle cx="160.12" cy="160.12" r="26.45" style="fill: none; opacity: .08; stroke: #fff; stroke-miterlimit: 10;"/>
    <circle cx="160.12" cy="160.12" r="21.98" style="fill: none; stroke: #231f20; stroke-miterlimit: 10;"/>
    <circle cx="160.12" cy="160.12" r="53.84" style="fill: none; stroke: #231f20; stroke-miterlimit: 10;"/>
    <g>
      <path d="M81.85,155.57v1.14s1.11,0,1.11,0c.49,0,.81.31.99.5.15.16,3.35,3.8,3.43,3.89.08.1.08.1.08.16v1.8c0,.08,0,.16-.02.25-.05.11-.14.19-.25.22-.11.01-.21.02-.32.02h-1.11s0,1.14,0,1.14h6.25s0-1.14,0-1.14h-1.18c-.11,0-.21,0-.31-.02-.11-.03-.2-.11-.25-.22-.02-.08-.02-.16-.03-.25v-1.8c0-.06,0-.12.04-.17l3.47-3.96c.32-.35.48-.43.9-.43h1.15s0-1.14,0-1.14h-5.15s0,1.14,0,1.14h.78c.12,0,.22.08.23.2,0,.05-.01.1-.04.15-.02.02-2.16,2.54-2.18,2.56s-.04.02-.06,0c-.02-.03-2.13-2.56-2.13-2.56-.15-.18-.03-.35.14-.35h.76s0-1.14,0-1.14h-6.28Z" style="fill: #4d3b2e; stroke-width: 0px;"/>
      <path d="M51.33,155.57v1.14s1,0,1,0c.72,0,.77.4.77.75v5.34c0,.32.02.76-.44.76h-1.23s0,1.14,0,1.14h5.26s0-1.14,0-1.14h-1.28c-.51,0-.54-.23-.54-.73v-4.57s7.22,6.44,7.22,6.44h1.84s-.1-7.27-.1-7.27c0-.53.04-.71.59-.71h1.15s0-1.14,0-1.14h-5.36s0,1.14,0,1.14h1.18c.54,0,.63.21.64.71l.06,3.81-6.27-5.65h-4.48Z" style="fill: #4d3b2e; stroke-width: 0px;"/>
      <path d="M27.67,154.99c-1.13,0-2.41.21-3.5.7-1.01.45-1.84,1.18-1.84,2.38,0,.63.24,1.24.67,1.7.29.27.76.73,2,1,.55.12,1.73.3,2.9.43,1.17.12,2.31.23,2.78.36.37.09.99.22.99.92s-.66.91-.77.95c-.11.05-.9.41-2.32.41-.94-.03-1.87-.19-2.76-.47-.53-.19-1.08-.44-1.6-1.07-.21-.3-.32-.65-.33-1.01h-1.28s0,3.59,0,3.59h1.42s0-.49,0-.49c0-.11.09-.2.2-.2.04,0,.07,0,.11.03.67.29,1.37.52,2.08.67.75.16,1.23.27,2.16.27.98.02,1.96-.12,2.9-.41.62-.17,1.21-.46,1.72-.85.59-.45.93-1.15.92-1.89,0-.69-.26-1.36-.74-1.86-.27-.26-.58-.47-.92-.63-.37-.17-.74-.3-1.13-.4-.74-.18-2.4-.41-3.19-.49-.83-.09-2.28-.21-2.85-.38-.17-.05-.53-.22-.53-.64,0-.29.16-.54.48-.75.51-.32,1.54-.52,2.62-.52,1.04-.01,2.08.19,3.04.59.26.11.5.26.72.43.36.31.61.73.71,1.19h1.15s0-3.12,0-3.12h-1.28s0,.36,0,.36c0,.12-.12.27-.35.14-.58-.3-2.2-.95-4.2-.96h0Z" style="fill: #4d3b2e; stroke-width: 0px;"/>
      <path d="M43.1,155c-2.02,0-4.16.7-5.38,1.8-.93.85-1.47,2.06-1.46,3.32-.01,1.27.52,2.48,1.46,3.33,1.31,1.17,3.26,1.8,5.38,1.8s4.12-.62,5.39-1.8c.92-.87,1.44-2.07,1.44-3.33.01-1.26-.51-2.47-1.44-3.32-1.37-1.24-3.16-1.8-5.39-1.8h0ZM43.1,156.33c1.1,0,2.17.4,2.89,1.1.69.68,1.06,1.65,1.06,2.68,0,1.08-.33,1.96-1.06,2.68-.73.72-1.77,1.11-2.89,1.11s-2.17-.4-2.89-1.11c-.69-.72-1.07-1.68-1.05-2.68,0-1.03.36-2,1.05-2.68.72-.71,1.79-1.1,2.89-1.1h0Z" style="fill: #4d3b2e; stroke-width: 0px;"/>
      <path d="M66.52,155.57v1.14s1,0,1,0c.72,0,.77.4.77.75v5.34c0,.32.02.76-.44.76h-1.23s0,1.14,0,1.14h5.26s0-1.14,0-1.14h-1.28c-.51,0-.54-.23-.54-.73v-4.57s7.22,6.44,7.22,6.44h1.84s-.1-7.27-.1-7.27c0-.53.04-.71.59-.71h1.15s0-1.14,0-1.14h-5.36s0,1.14,0,1.14h1.18c.54,0,.63.21.64.71l.06,3.81-6.27-5.65h-4.48Z" style="fill: #4d3b2e; stroke-width: 0px;"/>
    </g>
    <path d="M160.12,5.62C74.8,5.62,5.62,74.8,5.62,160.12s69.17,154.5,154.5,154.5,154.5-69.17,154.5-154.5S245.45,5.62,160.12,5.62ZM160.12,213.96c-29.73,0-53.84-24.1-53.84-53.84s24.1-53.84,53.84-53.84,53.84,24.1,53.84,53.84-24.1,53.84-53.84,53.84Z" style="fill: none; opacity: .92; stroke: #000; stroke-miterlimit: 10;"/>
    <circle cx="160.12" cy="160.12" r="47.71" style="fill: none; opacity: .08; stroke: #fff; stroke-miterlimit: 10;"/>
    <g>
      <path d="M236.34,186.57c2.24,0,4.47,0,6.71,0,1.53,0,2.12.54,2.13,2.05.02,2.55.02,5.1,0,7.65-.01,1.65-.51,2.14-2.13,2.15-4.44.01-8.87.02-13.31.01-1.47,0-2.01-.45-2.05-1.9-.09-2.76-.11-5.52-.09-8.28,0-1.15.54-1.6,1.74-1.61,2.34-.02,4.68,0,7.02,0,0-.02,0-.04,0-.06ZM241.27,189.06v5.32h-1.36v-5.14h-1.5v5.17h-1.33v-5.13h-1.33c-.06.24-.12.37-.12.5-.01,1.36-.02,2.72-.02,4.08,0,1.82.87,2.53,2.67,2.2.34-.06.67-.19.88-.25.52.11.93.25,1.33.26.89,0,1.98-.05,2.07-1.13.16-1.89.05-3.8.05-5.79-.44-.03-.77-.05-1.34-.08ZM233.24,191.89c-3.14.46-3.59,1.09-2.95,4.08.35.02.74.04,1.23.07.15-.89.28-1.67.41-2.46.14,0,.27-.01.41-.02.33.78.65,1.55,1.01,2.4h1.6c-.18-.55-.31-.93-.44-1.31-.13-.39-.25-.79-.38-1.19.17-.22.34-.4.47-.6.67-1.1.32-3.33-.66-3.51-1.23-.23-2.52-.16-3.88-.23v1.47c1.07.08,2.09.15,3.18.23v1.08Z" style="fill: #4d3b2e; stroke-width: 0px;"/>
      <path d="M276.85,154.48h-2.98c-.37-3.06-.73-6.06-1.09-9.07-.69-.38-1.16-.11-1.32.51-.57,2.23-1.15,4.46-1.56,6.72-.1.54.44,1.2.69,1.81h-4.76c1.91-.94,1.91-2.62,2.31-4.09,1.07-3.9,2.11-7.82,3.15-11.73.25-.94.23-1.77-.92-2.14.49.2.98.39,1.51.61.07,1.22.13,2.42.22,3.62,0,.03.31.03.49.05-.22.9-.48,1.84-.67,2.79-.22,1.09.34,1.65,1.41,1.31.57-.18,1.15-.55,1.56-.98,1.57-1.65,2-4.81.98-6.88,1.63.21,1.16,1.69,1.6,2.55,1.06.34,1.29.14,1.44-1.04-.26,1.17-.41,2.38-.8,3.51-.41,1.2-1.33,2.02-2.54,2.47-.66.25-.86.75-.75,1.43.38,2.2.7,4.42,1.14,6.61.13.66.58,1.26.9,1.93Z" style="fill: #4d3b2e; stroke-width: 0px;"/>
      <path d="M235.09,137.07c2.87.3,2.08,3.33,3.57,4.82.17,3.62-.52,7.11-3.04,9.95-.87.98-2.09,1.94-3.31,2.23-2.33.55-4.78.61-7.27.67,1.65-.99,1.7-2.66,2.11-4.12,1.07-3.86,2.06-7.75,3.1-11.62.27-1.02.15-1.83-.97-2.28,1.71.32,1.97.69,1.59,2.19-.34,1.35-.7,2.7-1.08,4.04-.31,1.09-.15,2.06.68,2.88-.49,1.97-.98,3.93-1.45,5.9-.09.37-.15.75-.19,1.13-.1,1.07.46,1.71,1.48,1.36,1.08-.37,2.19-.95,3-1.73,1.56-1.49,2.22-3.55,2.69-5.59.45-2,.74-4.05.9-6.09.11-1.49-.21-2.95-1.8-3.72Z" style="fill: #4d3b2e; stroke-width: 0px;"/>
      <path d="M252.41,142.98c.39.15.67.26,1.1.42-.59,2.37-1.2,4.76-1.78,7.15-.17.68-.34,1.36-.42,2.05-.14,1.23.54,1.84,1.77,1.59,1.73-.36,2.92-1.48,3.74-2.96,1.93-3.47,2.73-7.23,2.64-11.17-.03-1.28-.52-2.38-1.69-2.98.37.06.81.13,1.57.26.39,1.25.81,2.62,1.23,3.98.93.06,1.13-.2.72-1.16v4.36c-2.59.72-1.8,3.14-2.74,4.65.37.35.61.58.9.85-1.57,2.62-3.65,4.47-6.9,4.53-1.62.03-3.25,0-5.11,0,1.38-.83,1.63-2.06,1.95-3.27.99-3.75,2.03-7.48,3-11.22.25-.96.34-1.96.51-3.02.64.18.64.77.51,1.35-.27,1.26-.6,2.51-.89,3.77-.05.23-.07.47-.13.82Z" style="fill: #4d3b2e; stroke-width: 0px;"/>
      <path d="M284.23,146.82c.8-2.01,1.63-4,2.37-6.03.27-.74.46-1.56.43-2.33-.04-.71-.43-1.41-.66-2.09.27.15.74.41,1.41.77v3.45c1.47-.44.83-1.53,1.23-2.41,0,3.25,0,6.31.01,9.37,0,.13.2.26.46.56.29-.34.63-.58.75-.91,1-2.57,1.95-5.15,2.92-7.72.12-.33.26-.65.34-.99.2-.87.36-1.74-.74-2.22.71.12,1.41.25,1.84.32-2.43,5.94-4.92,12.01-7.41,18.08-.04,0-.09-.01-.13-.02v-12.65l-.39-.1c-1.28,1.38-1.36,3.37-2.43,4.91Z" style="fill: #4d3b2e; stroke-width: 0px;"/>
      <path d="M223.51,159.62h73.69c0,.06,0,.12,0,.18-24.56.11-49.12.23-73.69.34v-.52Z" style="fill: #4d3b2e; stroke-width: 0px;"/>
      <path d="M246.97,168.75c-.24,2.31-.6,4.55-1.79,6.55-.45.76-1.03,1.51-1.72,2.06-1.31,1.04-2.88.58-3.49-.98-.29-.74-.51-1.55-.53-2.33-.05-3.35.53-6.56,2.85-9.16,1.63-1.83,3.34-1.49,4.19.99.31.9.33,1.91.48,2.87ZM241.84,177.52c1.72-.69,4.16-10.42,3.3-13.13-.84-.61-1.43-.26-1.77.6-1.38,3.5-2.02,7.18-2.48,10.9-.09.73.1,1.41.95,1.63Z" style="fill: #4d3b2e; stroke-width: 0px;"/>
      <path d="M241.43,137.16c.21,2.01.42,3.96.66,6.2.66-.28,1.07-.38,1.38-.62.13-.1.05-.48-.03-.74-.67.95-.38,6.8.38,7.62.22-.22.52-.39.65-.65,1.23-2.5,2.44-5,3.63-7.52.45-.95.86-1.91,1.21-2.89.3-.83.25-1.6-.71-2.06.45.21.91.42,1.51.7-.19.64-.28,1.27-.54,1.81-1.49,3.07-3.02,6.13-4.54,9.19-1.02,2.06-2.03,4.12-3.05,6.17-.12.24-.28.47-.66.69-.02-.38-.05-.76-.06-1.14-.09-5.13-.16-10.26-.29-15.39-.02-.63-.37-1.25-.54-1.81.12.06.47.21.98.44Z" style="fill: #4d3b2e; stroke-width: 0px;"/>
      <path d="M270.23,177.4c.2-1.01.36-1.82.57-2.89h-3.81c.35-.97.46-1.74.87-2.28,2.01-2.67,4.1-5.29,6.18-7.91.21-.27.54-.44.82-.65.09.05.19.11.28.16-.57,2.84-1.14,5.67-1.71,8.51.38.2.65.34.98.52-.11.49-.21.95-.32,1.44-.34.08-.64.16-1.09.27-.22.9-.45,1.87-.68,2.84h-2.09ZM272.27,167.74c-.16-.07-.31-.14-.47-.2-1.21,1.58-2.43,3.16-3.85,5.01h3.3c.36-1.69.69-3.25,1.03-4.81Z" style="fill: #4d3b2e; stroke-width: 0px;"/>
      <path d="M282.36,140.11c.1-.59.19-1.19.29-1.78.06,0,.12,0,.19,0,0,.82,0,1.64,0,2.46-.01,2.06-.05,4.11-.01,6.17,0,.5.3.99.69,1.47-.77,2.12-1.53,4.24-2.3,6.36-.09,0-.17-.02-.26-.03,0-1.71,0-3.43,0-5.14,0-3.7,0-7.4-.03-11.09,0-.81-.04-1.64-.93-2.14.47.2.95.39,1.46.61.17,1.06.34,2.09.5,3.11.13,0,.27,0,.4,0Z" style="fill: #4d3b2e; stroke-width: 0px;"/>
      <path d="M236.75,177.61h-6.04c.28-.44.48-.77.7-1.08,1.41-1.98,2.93-3.9,4.21-5.97.53-.86.72-2.04.71-3.08,0-.67-.49-1.6-1.04-1.93-.8-.47-1.67.05-2.3.75-.13.14-.23.3-.46.38.07-.19.14-.38.22-.56.82-1.73,2.39-2.64,3.71-2.18,1.53.53,2.44,2.46,1.77,4.29-.44,1.22-1.16,2.37-1.95,3.41-.82,1.07-1.87,1.97-2.81,2.95-.22.23-.36.52-.56.82,2,.7,3.78.25,4.89-1.25-.07.31-.1.48-.15.65-.28.89-.57,1.79-.9,2.79Z" style="fill: #4d3b2e; stroke-width: 0px;"/>
      <path d="M262.83,145.86c.3-.83.58-1.6.88-2.44.72.05,1.4.1,2.16.15-.05.71-.33,1.48-.08,2.02.18.4,1.04.49,1.76.79-.13.46-.32,1.17-.55,2-2.56-.66-2.67,1.23-2.98,2.86-.85.05-1.6.1-2.51.16.2-.96.38-1.82.59-2.83-.71-.05-1.23-.08-1.95-.13.24-.81.47-1.58.7-2.36.7-.08,1.31-.16,1.96-.23Z" style="fill: #4d3b2e; stroke-width: 0px;"/>
      <path d="M229.43,177.66h-5c1.12-.37,1.48-1.27,1.7-2.29.66-2.92,1.33-5.84,1.98-8.76.09-.39.06-.81.09-1.35-.56-.1-1.05-.19-1.54-.28-.01-.04-.02-.09-.03-.13,1.25-.27,2.51-.54,3.94-.85-.07.45-.1.81-.17,1.16-.74,3.37-1.48,6.74-2.23,10.1-.34,1.55-.23,1.79,1.25,2.4Z" style="fill: #4d3b2e; stroke-width: 0px;"/>
      <path d="M280.87,167.36c.51-1.26.92-2.29,1.36-3.37h5.64c-2.01,4.53-4,9-6.02,13.55-.27.05-.56.1-1.12.21,1.76-3.92,3.42-7.64,5.09-11.35-1.39-.68-3.53-.3-4.96.96Z" style="fill: #4d3b2e; stroke-width: 0px;"/>
      <path d="M293.26,170.22c1.06.07,2.45-.6,3.15.73.67,1.29-.56,1.88-1.58,2.53.43.32.74.56,1.05.8.73,1.73-.81,3.52-4.04,2.92.47-2.31.94-4.62,1.42-6.99ZM292.86,177.02c1.26.14,1.8-.36,1.96-1.55.12-.85.18-1.69-1.27-1.87-.23,1.13-.45,2.23-.69,3.42ZM294.3,170.39c-.21.98-.41,1.95-.63,2.96,1.23-.01,1.72-.6,1.81-1.93.04-.65-.17-1.08-1.18-1.03Z" style="fill: #4d3b2e; stroke-width: 0px;"/>
      <path d="M290.8,170.4c-1.13-.43-1.94-.22-2.27.84-.47,1.52-.79,3.09-1.06,4.66-.08.47.23,1.01.33,1.42,1.45.26,1.57-.5,1.8-2.78h1.27c-.11.35-.22.64-.29.93-.45,1.76-.97,2.2-2.77,1.89-.51-.09-1.15-.71-1.34-1.22-.66-1.86.62-4.95,2.41-5.76.52-.24,1.26,0,1.9.03l.02-.02Z" style="fill: #4d3b2e; stroke-width: 0px;"/>
      <path d="M261.33,177.55c2.48-4.48,4.97-8.96,7.45-13.43.11.06.22.12.32.18-2.47,4.48-4.95,8.97-7.42,13.45-.12-.07-.24-.13-.35-.2Z" style="fill: #4d3b2e; stroke-width: 0px;"/>
      <path d="M277.58,175.66c.03,1.14-.67,2.05-1.38,1.95-.35-.05-.84-.5-.91-.84-.18-.81.66-1.77,1.42-1.67.36.05.68.44.86.57Z" style="fill: #4d3b2e; stroke-width: 0px;"/>
      <path d="M247.59,177.78c.34-1.7.62-3.08.93-4.6.06,0,.35-.06.91-.14-.34,1.51-.63,2.86-.98,4.2-.04.17-.4.26-.87.54Z" style="fill: #4d3b2e; stroke-width: 0px;"/>
      <path d="M259.29,177.52c-.1,0-.36.02-.85.05.29-1.52.55-2.92.82-4.32l-.31-.19c.29-.04.59-.07,1.12-.14-.27,1.6-.51,3-.78,4.6Z" style="fill: #4d3b2e; stroke-width: 0px;"/>
      <path d="M252.81,172.99s.26-.03.83-.09c-.28,1.59-.53,3.01-.8,4.6-.14-.01-.42-.04-.81-.07.26-1.49.5-2.83.78-4.44Z" style="fill: #4d3b2e; stroke-width: 0px;"/>
      <path d="M251.2,172.88c.15.65.25,1.08.34,1.5-.42,1.09-.84,2.16-1.25,3.23-.11-.04-.23-.08-.34-.12-.31-1.43,1.16-2.73.39-4.33.23-.07.49-.16.85-.28Z" style="fill: #4d3b2e; stroke-width: 0px;"/>
      <path d="M254.81,173.13c.2-.05.42-.1.82-.19-.26,1.54-.5,2.96-.77,4.56-.5.28-.74-.07-.67-.67.08-.76.28-1.5.42-2.25.08-.44.13-.88.21-1.45Z" style="fill: #4d3b2e; stroke-width: 0px;"/>
      <path d="M256.97,173.12c.24-.03.46-.06.72-.09.08,1.66-.3,3.12-.99,4.5-.15-.02-.29-.05-.44-.07.23-1.4.46-2.81.71-4.34Z" style="fill: #4d3b2e; stroke-width: 0px;"/>
      <path d="M255.85,170.58v.9c-.14,0-.27,0-.41,0-.02-.3-.03-.59-.05-.89.15,0,.31,0,.46-.01Z" style="fill: #4d3b2e; stroke-width: 0px;"/>
      <path d="M290.78,170.42c.28.01.56.03.78.04-.04.23-.12.64-.2,1.06-.2-.39-.38-.75-.56-1.12,0,0-.02.02-.02.02Z" style="fill: #4d3b2e; stroke-width: 0px;"/>
      <path d="M230.94,144.15s-.03.06,0,0c-.04.06.02-.04,0,0Z" style="fill: #4d3b2e; stroke-width: 0px;"/>
      <path d="M249.81,188.21l-.28,1.17h2.07s.48,0,.48,0c1.33,0,2.14.53,1.91,1.48-.25,1.03-1.41,1.48-2.64,1.48h-.46l.6-2.53h-2.07l-.88,3.7h2.93c2.2,0,4.3-1.16,4.67-2.65.07-.27.06-.95-.11-1.36,0-.02,0-.03-.02-.06,0-.01-.01-.07.02-.09.02,0,.05.03.06.04.02.05.03.08.03.08l1.86,5.26,4.75-5.36h2.01s.48,0,.48,0c1.33,0,2.15.53,1.92,1.48-.25,1.03-1.41,1.48-2.65,1.48h-.46l.6-2.53h-2.07l-.88,3.7h2.93c2.2,0,4.31-1.16,4.67-2.65s-1.19-2.65-3.41-2.65h-4.37s-1.16,1.37-1.37,1.63c-1.15,1.39-1.36,1.76-1.39,1.86,0-.1-.04-.47-.53-1.88-.13-.37-.55-1.61-.55-1.61h-7.86,0ZM258.07,194.76c-5.58,0-10.1.64-10.1,1.43s4.52,1.43,10.1,1.43,10.1-.64,10.1-1.43-4.52-1.43-10.1-1.43h0ZM257.7,195.74c1.27,0,2.31.21,2.31.48s-1.03.48-2.31.48-2.31-.21-2.31-.48,1.03-.48,2.31-.48Z" style="fill: #4d3b2e; stroke-width: 0px;"/>
    </g>
  </g>
</svg>