<?xml version="1.0" encoding="UTF-8"?>
<svg id="Layer_2" data-name="Layer 2" xmlns="http://www.w3.org/2000/svg" viewBox="0 0 171.02 175.9">
  <defs>
    <style>
      .cls-1 {
        fill: #c0a033;
      }

      .cls-1, .cls-2, .cls-3, .cls-4, .cls-5, .cls-6 {
        stroke-width: 0px;
      }

      .cls-7 {
        fill: none;
        stroke: #a098a6;
        stroke-linecap: square;
        stroke-miterlimit: 10;
      }

      .cls-2 {
        fill: #a39ba8;
      }

      .cls-3 {
        fill: #a098a6;
      }

      .cls-4 {
        fill: #8d8cb2;
      }

      .cls-5 {
        fill: #e6e7e8;
      }

      .cls-6 {
        fill: #fff;
      }
    </style>
  </defs>
  <g id="Layer_1-2" data-name="Layer 1">
    <path class="cls-6" d="M85.67,0C38.88,0,.95,37.93.95,84.72s37.93,84.72,84.72,84.72,84.72-37.93,84.72-84.72S132.46,0,85.67,0Z"/>
    <g>
      <path class="cls-6" d="M.95,84.72s-2.74,63.03,1.07,68.95c3.81,5.92,38.56,23.68,87.21,22.14C137.89,174.26.95,84.72.95,84.72Z"/>
      <path class="cls-6" d="M171.02,153.67c-3.81,5.92-38.56,23.68-87.21,22.14-48.65-1.54,86.52-94.5,86.52-94.5l.69,72.36Z"/>
      <g>
        <path class="cls-3" d="M153.93,145.25l-1.61.04s-1.33-1.16-2.51-.98-2.08,1.76-2.22,2.49-.69,5.78-.52,6.29.7,1.02,1.74.99,2.57-3.02,2.67-3.33,2.59-.32,2.59-.32l-.13-5.18Z"/>
        <path class="cls-3" d="M153.93,145.24l1.61-.04s1.27-1.22,2.46-1.1,2.17,1.66,2.34,2.38.97,5.73.83,6.26-.65,1.05-1.69,1.08-2.72-2.89-2.83-3.2-2.6-.2-2.6-.2l-.13-5.18Z"/>
      </g>
      <g>
        <polyline class="cls-7" points="7.2 147.21 13.69 147.21 13.69 149.12 7.2 149.12 7.2 150.98"/>
        <polyline class="cls-7" points="15.44 147.21 21.93 147.21 21.93 149.12 15.44 149.12 15.44 150.98"/>
        <polyline class="cls-7" points="23.68 147.21 30.17 147.21 30.17 149.12 23.68 149.12 23.68 150.98"/>
      </g>
    </g>
    <g id="disc">
      <path class="cls-5" d="M85.67,7.47C43.01,7.47,8.42,42.06,8.42,84.72s34.59,77.25,77.25,77.25,77.25-34.59,77.25-77.25S128.34,7.47,85.67,7.47ZM85.67,111.64c-14.87,0-26.92-12.05-26.92-26.92s12.05-26.92,26.92-26.92,26.92,12.05,26.92,26.92-12.05,26.92-26.92,26.92Z"/>
      <g>
        <path class="cls-1" d="M46.21,57.37l4.41-2.4s5.34,1.33,8.38-.87,3.27-7.87,2.62-10.1c-.66-2.22-6.33-17.03-7.53-18.22s-3.4-1.84-6.24-.29-2.84,12.06-2.66,13.07-6.72,4.59-6.72,4.59l7.75,14.22Z"/>
        <path class="cls-1" d="M36.53,66.21c3.5-1.36,5.28-6.56,5.28-6.56l4.41-2.4-7.75-14.22s-6.75,3.86-7.5,3.16c-.56-.52-5.62-3.83-9.33-4.83-1.74,2.58-3.32,5.27-4.74,8.06,2.78,4.32,8.57,12.17,9.73,13.52,1.51,1.76,6.4,4.63,9.9,3.28Z"/>
      </g>
    </g>
    <path class="cls-6" d="M85.67,117.02c-17.84,0-32.3-14.46-32.3-32.3s14.46-32.3,32.3-32.3,32.3,14.46,32.3,32.3-14.46,32.3-32.3,32.3Z"/>
    <path class="cls-4" d="M58.63,78.17c0,5.26,0,5.35.26,6.36.49,1.88,1.71,3.34,3.51,4.19,2.16,1.03,5.11,1.03,7.26,0,1.79-.86,2.99-2.31,3.49-4.25.27-1.04.26-.94.28-6.25l.02-4.86h-1.62v4.76c0,5.17,0,5.23-.25,6.09-.26.88-.62,1.54-1.19,2.14-1.12,1.19-2.5,1.74-4.35,1.73-.94,0-1.42-.07-2.18-.32-1.6-.53-2.78-1.71-3.31-3.32-.33-.98-.31-.77-.33-6.21v-4.88h-1.58v4.8Z"/>
    <path class="cls-4" d="M76.9,81.31v7.95h1.62v-6.29c0-3.85.02-6.28.04-6.25.02.02,1.43,2.86,3.13,6.29l3.08,6.25h.77s.77,0,.77,0l1.14-2.32c3.22-6.59,4.99-10.18,5.03-10.19.04-.01.05,1.8.05,6.25v6.27h1.57v-15.89h-1.74l-.11.24c-.27.62-6.71,13.68-6.74,13.68-.02,0-.27-.49-.57-1.09-.29-.6-1.83-3.73-3.43-6.95l-2.9-5.86h-.85s-.86-.02-.86-.02v7.95Z"/>
    <path class="cls-4" d="M97.6,81.31v7.95h3.21c3.28,0,3.94-.02,4.92-.18,1.43-.23,2.77-.75,3.78-1.47.57-.41,1.33-1.14,1.76-1.72,1.28-1.7,1.76-4.02,1.29-6.31-.61-2.99-3-5.24-6.29-5.93-1.25-.26-1.3-.26-5.11-.28l-3.54-.02v7.95ZM105.64,74.93c1.45.26,2.59.83,3.61,1.81,1,.95,1.54,1.92,1.83,3.24.14.67.14,2,0,2.68-.29,1.37-.88,2.38-1.94,3.34-.84.76-1.86,1.29-3,1.56-.89.22-1.18.23-4.17.25l-2.84.02v-13.03h2.98c2.85.03,2.99.04,3.53.13Z"/>
    <path class="cls-2" d="M76.56,92.6c-.26.08-.49.23-.59.38-.14.2-.2.5-.14.71.11.4.35.54,1.27.75.55.13.75.24.84.48.05.14.05.18-.03.36-.12.27-.36.4-.8.4s-.73-.15-.89-.42c-.06-.11-.11-.23-.11-.29,0-.09-.03-.1-.21-.1h-.21l.03.19c.1.61.61.98,1.34.98.8,0,1.32-.39,1.33-.98,0-.52-.31-.78-1.17-.97-.76-.18-.99-.32-.99-.62,0-.32.24-.52.67-.56.45-.04.81.15.9.48.05.17.05.18.25.18s.2,0,.17-.13c-.09-.42-.22-.6-.53-.76-.28-.14-.84-.18-1.14-.09Z"/>
    <path class="cls-2" d="M107.12,92.61c-.54.15-.83.5-.8.97.03.48.28.66,1.18.87.62.14.72.18.85.35.22.26.09.69-.24.83-.21.09-.73.1-.97.02-.22-.08-.47-.33-.53-.55-.04-.16-.06-.17-.22-.17-.16,0-.18.01-.18.1,0,.39.3.78.71.94.53.21,1.31.11,1.66-.2.21-.18.28-.37.28-.69,0-.5-.24-.74-.91-.91-.2-.05-.5-.13-.66-.17-.39-.1-.57-.26-.56-.5,0-.36.27-.55.76-.56.44,0,.75.21.82.55.02.13.04.13.23.13h.2l-.03-.18c-.04-.26-.17-.5-.36-.64-.31-.22-.84-.31-1.24-.2Z"/>
    <path class="cls-2" d="M110.59,92.58c-.48.1-.92.42-1.11.83-.25.52-.24,1.3.03,1.85.25.52.7.78,1.34.78.44,0,.75-.09.98-.29.21-.18.4-.53.44-.82l.03-.19h-.41l-.07.26c-.15.52-.6.79-1.15.69-.47-.09-.78-.45-.89-1.02-.12-.6.08-1.26.45-1.54.55-.4,1.32-.23,1.57.35.05.13.07.13.27.13h.22l-.04-.14c-.11-.39-.47-.75-.85-.85-.26-.07-.6-.09-.8-.04Z"/>
    <path class="cls-2" d="M58.82,93.92c.01,1.28.01,1.3.13,1.52.13.25.4.48.66.56.74.21,1.48,0,1.76-.49.11-.2.11-.21.13-1.54v-1.33s-.19,0-.19,0h-.2v1.24c-.03,1.41-.04,1.49-.38,1.71-.16.1-.23.12-.52.12-.41,0-.66-.11-.82-.37-.11-.17-.11-.2-.12-1.44v-1.27h-.46v1.29Z"/>
    <path class="cls-2" d="M62.26,94.31v1.68h.36v-1.35c0-.74.01-1.35.04-1.35.02,0,.42.61.9,1.35l.87,1.35h.48v-3.37h-.4v1.37c0,.75-.01,1.36-.04,1.35-.02,0-.43-.63-.91-1.37l-.87-1.35h-.43v1.68Z"/>
    <path class="cls-2" d="M65.63,94.33v1.71h.49v-3.41h-.49v1.71Z"/>
    <path class="cls-2" d="M66.53,92.66s.26.77.58,1.67l.57,1.64h.52l.57-1.64c.32-.9.58-1.66.58-1.67s-.09-.03-.21-.02h-.21s-.47,1.44-.47,1.44c-.26.78-.49,1.42-.51,1.42-.01,0-.24-.65-.51-1.44l-.48-1.44h-.22c-.12,0-.22.01-.22.03Z"/>
    <path class="cls-2" d="M69.76,94.31v1.68h2.33v-.36h-1.89v-1.17h1.75v-.36h-1.75v-1.12h1.89v-.36h-2.33v1.68Z"/>
    <path class="cls-2" d="M72.64,94.31v1.69h.45v-1.44h.65c.63,0,.65,0,.79.11.17.14.21.29.27.82.03.23.06.44.07.46.01.03.13.04.25.04h.22l-.05-.13c-.03-.07-.06-.31-.08-.53-.04-.5-.16-.79-.36-.89l-.15-.08.18-.11c.26-.16.39-.43.36-.8-.02-.35-.17-.57-.48-.72-.18-.09-.3-.09-1.16-.11l-.96-.02v1.69ZM74.47,93.06c.43.17.47.74.08,1.02-.11.08-.21.09-.8.11h-.67s0-.6,0-.6v-.61h.61c.44,0,.65.02.78.07Z"/>
    <path class="cls-2" d="M79.85,92.66s-1.28,3.29-1.28,3.31c0,0,.09.02.22.02h.21l.18-.48.18-.48h1.47l.18.48.18.48h.48l-.16-.42c-.09-.23-.39-.99-.66-1.68l-.49-1.27h-.23c-.13,0-.24.02-.26.04ZM80.43,93.94c.12.34.21.63.19.64-.01,0-.26.01-.57,0h-.54s.26-.72.26-.72c.14-.39.27-.73.29-.76.04-.06.07,0,.36.83Z"/>
    <path class="cls-2" d="M82.02,94.31v1.68h2.2v-.36h-1.8v-3.01h-.4v1.68Z"/>
    <path class="cls-2" d="M85.97,94.31v1.68h.4v-1.36c0-1.05.01-1.33.05-1.27.03.05.26.66.53,1.35l.48,1.26h.18s.18.03.18.03l.5-1.34c.28-.74.53-1.37.55-1.41.02-.04.04.51.04,1.33v1.41h.4v-3.37h-.3s-.3.03-.3.03l-.53,1.38c-.29.76-.53,1.4-.55,1.41,0,.01-.26-.62-.55-1.4l-.53-1.41h-.57v1.68Z"/>
    <path class="cls-2" d="M90.06,94.31v1.68h2.33v-.36h-1.93v-1.17h1.8v-.36h-.88s-.89-.02-.89-.02v-1.08h.93s.93-.02.93-.02v-.36h-2.29v1.68Z"/>
    <path class="cls-2" d="M92.93,94.31v1.69l.82-.02c.45,0,.89-.04.98-.07.55-.18.86-.62.93-1.33.1-.99-.21-1.63-.91-1.85-.16-.05-.47-.08-1.03-.09l-.8-.02v1.69ZM94.66,93.09c.39.17.56.46.6,1.05.03.51-.07.88-.31,1.16-.23.26-.48.34-1.1.34h-.46v-2.66l.55.02c.38.01.6.04.73.1Z"/>
    <path class="cls-2" d="M96.25,94.33v1.71h.49v-3.41h-.49v1.71Z"/>
    <path class="cls-2" d="M98.37,92.73c-.02.06-.31.79-.63,1.63s-.61,1.55-.62,1.58c-.01.04.03.05.2.04h.22s.18-.5.18-.5l.18-.48h.74s.74.02.74.02l.17.47.17.47h.23c.13.02.23.01.23,0,0-.02-.29-.78-.64-1.68l-.64-1.65h-.24c-.2,0-.24.01-.27.1ZM98.94,93.87l.27.73h-.58c-.45,0-.58-.01-.56-.06,0-.03.13-.37.28-.76s.28-.69.3-.67.15.36.3.76Z"/>
    <path class="cls-2" d="M101.82,94.31v1.69h.69c.81,0,1.12-.05,1.43-.24.28-.17.45-.4.55-.75.23-.86.07-1.68-.41-2.05-.31-.24-.56-.29-1.45-.31l-.8-.02v1.69ZM103.57,93.11c.43.19.61.59.57,1.29-.02.47-.12.73-.35.96-.21.2-.5.28-1.06.28h-.46v-2.66l.55.02c.42.01.59.04.75.11Z"/>
    <path class="cls-2" d="M105.19,94.33v1.71h.45v-3.41h-.45v1.71Z"/>
  </g>
</svg>