<?xml version="1.0" encoding="UTF-8"?>
<svg id="Layer_2" data-name="Layer 2" xmlns="http://www.w3.org/2000/svg" viewBox="0 0 320.25 320.25">
  <defs>
    <style>
      .cls-1 {
        opacity: .08;
      }

      .cls-1, .cls-2, .cls-3 {
        fill: none;
      }

      .cls-1, .cls-2, .cls-3, .cls-4, .cls-5 {
        stroke-miterlimit: 10;
      }

      .cls-1, .cls-4 {
        stroke: #fff;
      }

      .cls-2 {
        opacity: .92;
        stroke: #000;
      }

      .cls-3, .cls-5 {
        stroke: #231f20;
      }

      .cls-4 {
        opacity: .09;
      }

      .cls-4, .cls-6 {
        fill: #fff;
      }

      .cls-5 {
        fill: #70c3ed;
      }

      .cls-6 {
        stroke-width: 0px;
      }
    </style>
  </defs>
  <g id="Layer_1-2" data-name="Layer 1">
    <path class="cls-4" d="M160.12.5C71.97.5.5,71.97.5,160.12s71.47,159.62,159.62,159.62,159.62-71.47,159.62-159.62S248.28.5,160.12.5ZM160.12,182.1c-12.14,0-21.98-9.84-21.98-21.98s9.84-21.98,21.98-21.98,21.98,9.84,21.98,21.98-9.84,21.98-21.98,21.98Z"/>
    <path class="cls-5" d="M160.12,5.62C74.8,5.62,5.62,74.8,5.62,160.12s69.17,154.5,154.5,154.5,154.5-69.17,154.5-154.5S245.45,5.62,160.12,5.62ZM160.12,213.96c-29.73,0-53.84-24.1-53.84-53.84s24.1-53.84,53.84-53.84,53.84,24.1,53.84,53.84-24.1,53.84-53.84,53.84Z"/>
    <circle class="cls-1" cx="160.12" cy="160.12" r="26.45"/>
    <circle class="cls-3" cx="160.12" cy="160.12" r="21.98"/>
    <circle class="cls-3" cx="160.12" cy="160.12" r="53.84"/>
    <path class="cls-2" d="M160.12,5.62C74.8,5.62,5.62,74.8,5.62,160.12s69.17,154.5,154.5,154.5,154.5-69.17,154.5-154.5S245.45,5.62,160.12,5.62ZM160.12,213.96c-29.73,0-53.84-24.1-53.84-53.84s24.1-53.84,53.84-53.84,53.84,24.1,53.84,53.84-24.1,53.84-53.84,53.84Z"/>
    <circle class="cls-1" cx="160.12" cy="160.12" r="47.71"/>
    <path class="cls-6" d="M90.25,172.17h.67l.67,2.23.68-2.23h.68v2.79h-.44v-2.31l-.69,2.31h-.46l-.68-2.31v2.31h-.43v-2.79ZM87.73,172.17h2.18v.41h-.86v2.38h-.47v-2.38h-.86v-.41ZM61.47,174.82l-21.88-5.58s16.43-4.27,18.76-4.96c2.33-.69,3.36-2.12,3.36-4.15s-1.02-3.46-3.36-4.15c-2.33-.69-18.76-4.96-18.76-4.96l21.88-5.59v-6.73s-23.35,6.46-26.05,7.34c-2.11.68-3.84,2.3-3.84,4.7,0,2.74,2,4.02,3.84,4.62,1.83.59,17.25,4.77,17.25,4.77,0,0-15.42,4.18-17.25,4.77-1.84.59-3.84,1.88-3.84,4.62,0,2.4,1.73,4.02,3.84,4.7,2.7.88,26.05,7.33,26.05,7.33v-6.73ZM72.8,143.56h-6.37v20.6h6.37v-20.6ZM73.41,171.36c0-1.99-1.67-3.6-3.73-3.6s-3.82,1.58-3.82,3.6,1.68,3.6,3.82,3.6,3.73-1.61,3.73-3.6M85.74,143.56h-6.37v20.6h6.37v-20.6ZM86.35,171.36c0-1.99-1.67-3.6-3.73-3.6s-3.82,1.58-3.82,3.6,1.68,3.6,3.82,3.6,3.73-1.61,3.73-3.6"/>
    <g>
      <path class="cls-6" d="M292.88,166.98h-55.9c-.12-.03-.24-.07-.37-.1-2.58-.46-4.37-1.9-5.34-4.33-.2-.5-.31-1.04-.46-1.56,0-.58,0-1.16,0-1.74.03-.09.08-.17.09-.26.47-2.75,2.51-4.92,5.23-5.53.28-.06.56-.13.84-.19,18.63,0,37.27,0,55.9,0,.12.03.24.08.37.1,3.07.44,5.46,2.97,5.78,6.1.31,3.03-1.53,6-4.39,7.03-.57.21-1.17.32-1.76.47ZM264.88,165.25h0c9.14,0,18.28,0,27.41-.01,1.96,0,3.46-.93,4.4-2.63.94-1.71.91-3.47-.11-5.14-1.01-1.67-2.55-2.46-4.51-2.46-9.33,0-18.66,0-27.99,0-8.85,0-17.7-.01-26.55,0-3.86,0-6.3,4.28-4.36,7.63,1.03,1.78,2.62,2.61,4.67,2.61,9.01,0,18.02,0,27.03,0Z"/>
      <path class="cls-6" d="M240.68,156.77h1.96v6.74c-.56,0-1.12.02-1.67-.02-.13,0-.27-.19-.36-.33-.81-1.29-1.62-2.59-2.43-3.88-.11-.18-.22-.35-.42-.52v4.7h-1.9v-6.69h1.88c.94,1.44,1.9,2.91,2.86,4.39.03,0,.06,0,.09-.01v-4.38Z"/>
      <path class="cls-6" d="M272.97,158.85v-2.27h1.94v6.92c-.65,0-1.28,0-1.92,0-.11,0-.21,0-.32,0-.58-.01-1.16.05-1.73-.04-.93-.16-1.53-.87-1.67-1.82-.15-1.06.31-2.11,1.15-2.56.8-.43,1.33-.48,2.54-.21ZM273.01,161.16h-.02c0-.42.03-.84,0-1.25-.03-.4-.27-.61-.65-.65-.38-.04-.68.12-.78.49-.25.89-.27,1.8.01,2.69.14.43.45.57.87.49.4-.07.56-.35.57-.72.01-.35,0-.71,0-1.06Z"/>
      <path class="cls-6" d="M268.67,163.5h-2.01c0-.57,0-1.12,0-1.66,0-.43,0-.87,0-1.3,0-.73-.51-1.11-1.21-.94-.43.11-.62.33-.62.78,0,.87,0,1.74,0,2.6,0,.16-.01.31-.02.51h-2.01v-4.59h2c.02.12.04.25.07.42.07-.03.15-.05.2-.1.66-.53,1.43-.63,2.23-.54.82.09,1.33.6,1.37,1.48.05,1.09.01,2.18.01,3.33Z"/>
      <path class="cls-6" d="M287.13,163.51h-1.95c-.01-.18-.03-.35-.03-.52,0-.82,0-1.64,0-2.46,0-.72-.48-1.08-1.17-.94-.46.1-.66.33-.66.8,0,.85,0,1.7,0,2.55,0,.17,0,.34,0,.55h-2.05v-4.6h2c.03.12.06.26.11.45.65-.54,1.36-.73,2.17-.68.95.06,1.51.48,1.57,1.41.07,1.12.02,2.24.02,3.43Z"/>
      <path class="cls-6" d="M248.18,163.5h-2.01v-4.59h1.97c.02.11.05.24.09.42.07-.04.15-.06.2-.1.77-.59,1.64-.7,2.55-.46.63.16,1,.61,1.02,1.25.04,1.14.01,2.28.01,3.47h-2c0-.33,0-.65,0-.97,0-.74,0-1.48,0-2.22-.01-.47-.37-.73-.94-.73-.48,0-.87.32-.88.76-.01.87,0,1.74,0,2.6,0,.17,0,.35,0,.57Z"/>
      <path class="cls-6" d="M278.11,163.54c-.33-.05-.67-.09-.99-.16-1.26-.31-1.79-1.21-1.76-2.47.03-1.22.75-1.95,1.99-2.15.76-.12,1.51-.07,2.22.22.87.36,1.26,1.07,1.3,1.97.04.86-.2,1.62-1.02,2.09-.54.31-1.11.49-1.74.51ZM278.91,161.1s0,0-.01,0c0-.35.03-.71,0-1.06-.05-.44-.33-.69-.71-.72-.43-.03-.79.17-.83.62-.07.76-.07,1.53,0,2.29.04.45.48.73.85.68.39-.05.68-.38.71-.85.02-.32,0-.64,0-.96Z"/>
      <path class="cls-6" d="M262.39,161.09h-3.35c.05.48.07.9.15,1.32.05.31.24.52.59.52.34,0,.61-.12.72-.45.08-.24.1-.5.15-.78h1.69c-.18.78-.54,1.39-1.31,1.65-.85.28-1.71.26-2.54-.1-.74-.32-1.38-1.37-1.33-2.13.07-1.04.72-1.92,1.64-2.23.71-.23,1.42-.22,2.12.01.92.31,1.44,1.08,1.47,2.19ZM259.13,160.33h1.35c.04-.66-.21-1.07-.65-1.08-.44-.01-.7.38-.7,1.08Z"/>
      <path class="cls-6" d="M255.75,163.49h-1.92v-4.18c-.41-.02-.75-.04-1.12-.06v-.74h1.09c.02-.34.04-.62.06-.93h1.84c.02.28.04.56.07.89.35.02.69.04,1.08.06v.74h-1.09v4.21Z"/>
      <path class="cls-6" d="M289.87,159.29v-.75c.37-.02.71-.03,1.08-.05.02-.3.04-.57.06-.88h1.86c.02.27.03.55.06.88.36.02.7.04,1.08.06v.71c-.33.02-.68.04-1.08.06v4.17h-1.93v-4.19h-1.12Z"/>
      <path class="cls-6" d="M245.42,158.94v4.56h-2.15v-4.56h2.15Z"/>
      <path class="cls-6" d="M243.28,156.73h2.14v1.33h-2.14v-1.33Z"/>
      <path class="cls-6" d="M289.07,159.51h-.95c-.07-.7-.15-1.41-.22-2.15h1.37c-.07.73-.13,1.43-.19,2.15Z"/>
    </g>
  </g>
</svg>